<?xml version="1.0" encoding="UTF-8" standalone="no"?>
<svg width="45px" height="38px" viewBox="0 0 45 38" version="1.1" xmlns="http://www.w3.org/2000/svg" xmlns:xlink="http://www.w3.org/1999/xlink" xmlns:sketch="http://www.bohemiancoding.com/sketch/ns">
    <!-- Generator: Sketch 3.5.2 (25235) - http://www.bohemiancoding.com/sketch -->
    <title>hiwamoegi</title>
    <desc>Created with Sketch.</desc>
    <defs></defs>
    <g id="Welcome" stroke="none" stroke-width="1" fill="none" fill-rule="evenodd" sketch:type="MSPage">
        <g id="colorful-hiwamoegi" sketch:type="MSArtboardGroup" transform="translate(-490.000000, -183.000000)" fill="#FFFFFF">
            <path d="M534.646674,206.0068 C525.354033,201.121795 513.893591,197.482837 513.893591,197.482837 C513.893591,197.482837 507.905598,190.931466 496.230022,183.801888 L491.875745,186.504341 C487.76828,197.832118 492.096672,210.721815 502.711716,216.850413 C513.362602,222.999705 526.743791,220.264351 534.488551,210.967972 L534.646674,206.0068 L534.646674,206.0068 Z M505.294757,209.875145 C503.730849,211.333513 501.844048,211.617195 500.493444,210.16885 C499.142841,208.720506 499.698335,206.726711 501.121357,205.399722 C502.544379,204.072732 511.142791,199.144009 511.692021,199.726008 C512.241252,200.308007 506.858665,208.416777 505.294757,209.875145 Z M514.235625,208.58574 C513.952938,209.915676 513.073669,210.751543 511.842007,210.489746 C510.610344,210.227948 510.172536,208.986905 510.429756,207.776777 C510.686977,206.566649 513.367906,200.863728 513.866223,200.966555 C514.36454,201.069382 514.518311,207.255803 514.235625,208.58574 Z" id="hiwamoegi" sketch:type="MSShapeGroup"></path>
        </g>
    </g>
</svg>