<?xml version="1.0" encoding="UTF-8" standalone="no"?>
<svg width="45px" height="38px" viewBox="0 0 45 38" version="1.1" xmlns="http://www.w3.org/2000/svg" xmlns:xlink="http://www.w3.org/1999/xlink" xmlns:sketch="http://www.bohemiancoding.com/sketch/ns">
    <!-- Generator: Sketch 3.5.2 (25235) - http://www.bohemiancoding.com/sketch -->
    <title>hanaba</title>
    <desc>Created with Sketch.</desc>
    <defs></defs>
    <g id="Welcome" stroke="none" stroke-width="1" fill="none" fill-rule="evenodd" sketch:type="MSPage">
        <g id="colorful" sketch:type="MSArtboardGroup" transform="translate(-409.000000, -183.000000)" fill="#F7C442">
            <path d="M453.664276,206.045062 C444.360612,201.152693 432.890034,197.501672 432.890034,197.501672 C432.890034,197.501672 426.890007,190.949806 415.199145,183.812214 L410.846937,186.504981 C406.754145,197.812658 411.103053,210.692527 421.731481,216.828853 C432.395798,222.985899 445.7787,220.273353 453.513275,210.999809 L453.664276,206.045062 L453.664276,206.045062 Z M424.299511,209.87408 C422.733631,211.334287 420.846915,211.620969 419.499128,210.175645 C418.151342,208.730321 418.709999,206.736654 420.134816,205.407991 C421.559633,204.079328 430.16373,199.13886 430.711826,199.719635 C431.259923,200.300409 425.865392,208.413873 424.299511,209.87408 Z M433.229641,208.589184 C432.946597,209.920797 432.068466,210.758196 430.839372,210.496945 C429.610279,210.235693 429.174165,208.993563 429.43171,207.781909 C429.689255,206.570255 432.368862,200.859143 432.866142,200.961746 C433.363421,201.064348 433.512684,207.257571 433.229641,208.589184 Z" id="hanaba" sketch:type="MSShapeGroup"></path>
        </g>
    </g>
</svg>