<?xml version="1.0" encoding="UTF-8" standalone="no"?>
<svg width="44px" height="36px" viewBox="0 0 44 36" version="1.1" xmlns="http://www.w3.org/2000/svg" xmlns:xlink="http://www.w3.org/1999/xlink" xmlns:sketch="http://www.bohemiancoding.com/sketch/ns">
    <!-- Generator: Sketch 3.5.2 (25235) - http://www.bohemiancoding.com/sketch -->
    <title>Oval 3</title>
    <desc>Created with Sketch.</desc>
    <defs></defs>
    <g id="Welcome" stroke="none" stroke-width="1" fill="none" fill-rule="evenodd" sketch:type="MSPage">
        <g id="Desktop---花葉" sketch:type="MSArtboardGroup" transform="translate(-684.000000, -297.000000)" fill="#F17867">
            <g id="sangosyu" sketch:type="MSLayerGroup" transform="translate(684.000000, 281.000000)">
                <path d="M43.0619155,37.5443321 C34.0302229,32.7901378 22.9056184,29.2219648 22.9056184,29.2219648 C22.9056184,29.2219648 17.0657828,22.8840576 5.71224515,15.9564782 L1.50956257,18.5307891 C-2.40333428,29.4045248 1.8658621,41.8304549 12.1860429,47.788814 C22.541071,53.7672922 35.4891103,51.2143548 42.937863,42.316288 L43.0619155,37.5443321 L43.0619155,37.5443321 Z M14.6232822,41.1260346 C13.102816,42.5438923 11.278412,42.8304028 9.98364753,41.4419379 C8.68888307,40.053473 9.2389322,38.1257703 10.6224259,36.8356415 C12.0059197,35.5455127 20.3445829,30.7312818 20.871153,31.2891748 C21.3977232,31.8470678 16.1437484,39.7081768 14.6232822,41.1260346 Z M23.2265616,39.8973152 C22.9517273,41.1903089 22.1059884,42.0048935 20.9252477,41.7539193 C19.7445069,41.5029451 19.3279661,40.2983117 19.5780417,39.1217984 C19.8281173,37.9452851 22.4155127,32.3967263 22.8932361,32.4952618 C23.3709594,32.5937974 23.5013958,38.6043215 23.2265616,39.8973152 Z" id="Oval-3" sketch:type="MSShapeGroup"></path>
            </g>
        </g>
    </g>
</svg>