<?xml version="1.0" encoding="UTF-8" standalone="no"?>
<svg width="44px" height="36px" viewBox="0 0 44 36" version="1.1" xmlns="http://www.w3.org/2000/svg" xmlns:xlink="http://www.w3.org/1999/xlink" xmlns:sketch="http://www.bohemiancoding.com/sketch/ns">
    <!-- Generator: Sketch 3.5.2 (25235) - http://www.bohemiancoding.com/sketch -->
    <title>Oval 3</title>
    <desc>Created with Sketch.</desc>
    <defs></defs>
    <g id="Welcome" stroke="none" stroke-width="1" fill="none" fill-rule="evenodd" sketch:type="MSPage">
        <g id="Desktop---花葉" sketch:type="MSArtboardGroup" transform="translate(-256.000000, -297.000000)" fill="#F7C442">
            <g id="hanaba" sketch:type="MSLayerGroup" transform="translate(256.000000, 281.000000)">
                <path d="M43.0791187,37.5812216 C34.0367044,32.8198771 22.9022089,29.2400397 22.9022089,29.2400397 C22.9022089,29.2400397 17.0507109,22.901586 5.68231675,15.9662063 L1.48158152,18.5312116 C-2.41721789,29.3856952 1.87179699,41.8022915 12.2049913,47.768164 C22.5730767,53.7541809 35.5229103,51.2231959 42.961929,42.3470375 L43.0791187,37.5812216 L43.0791187,37.5812216 Z M14.627791,41.1250626 C13.1054075,42.5447083 11.2810646,42.8341126 9.98900063,41.4485436 C8.69693665,40.0629747 9.250041,38.1353737 10.6352793,36.8436181 C12.0205176,35.5518624 20.3647517,30.7262593 20.890235,31.2829782 C21.4157182,31.839697 16.1501744,39.705417 14.627791,41.1250626 Z M23.2208158,39.9006755 C22.945635,41.1952996 22.1009832,42.0113691 20.9227052,41.7609184 C19.7444272,41.5104677 19.3295147,40.304773 19.5799057,39.1267761 C19.8302966,37.9487793 22.4164461,32.3922656 22.8931752,32.490586 C23.3699042,32.5889064 23.4959966,38.6060513 23.2208158,39.9006755 Z" id="Oval-3" sketch:type="MSShapeGroup"></path>
            </g>
        </g>
    </g>
</svg>