<?xml version="1.0" encoding="UTF-8" standalone="no"?>
<svg width="45px" height="38px" viewBox="0 0 45 38" version="1.1" xmlns="http://www.w3.org/2000/svg" xmlns:xlink="http://www.w3.org/1999/xlink" xmlns:sketch="http://www.bohemiancoding.com/sketch/ns">
    <!-- Generator: Sketch 3.5.2 (25235) - http://www.bohemiancoding.com/sketch -->
    <title>sangosyu</title>
    <desc>Created with Sketch.</desc>
    <defs></defs>
    <g id="Welcome" stroke="none" stroke-width="1" fill="none" fill-rule="evenodd" sketch:type="MSPage">
        <g id="colorful" sketch:type="MSArtboardGroup" transform="translate(-570.000000, -183.000000)" fill="#F17867">
            <path d="M614.646674,206.0068 C605.354033,201.121795 593.893591,197.482837 593.893591,197.482837 C593.893591,197.482837 587.905598,190.931466 576.230022,183.801888 L571.875745,186.504341 C567.76828,197.832118 572.096672,210.721815 582.711716,216.850413 C593.362602,222.999705 606.743791,220.264351 614.488551,210.967972 L614.646674,206.0068 L614.646674,206.0068 Z M585.294757,209.875145 C583.730849,211.333513 581.844048,211.617195 580.493444,210.16885 C579.142841,208.720506 579.698335,206.726711 581.121357,205.399722 C582.544379,204.072732 591.142791,199.144009 591.692021,199.726008 C592.241252,200.308007 586.858665,208.416777 585.294757,209.875145 Z M594.235625,208.58574 C593.952938,209.915676 593.073669,210.751543 591.842007,210.489746 C590.610344,210.227948 590.172536,208.986905 590.429756,207.776777 C590.686977,206.566649 593.367906,200.863728 593.866223,200.966555 C594.36454,201.069382 594.518311,207.255803 594.235625,208.58574 Z" id="sangosyu" sketch:type="MSShapeGroup"></path>
        </g>
    </g>
</svg>