<?xml version="1.0" encoding="UTF-8" standalone="no"?>
<svg width="485px" height="104px" viewBox="0 0 485 104" version="1.1" xmlns="http://www.w3.org/2000/svg" xmlns:xlink="http://www.w3.org/1999/xlink" xmlns:sketch="http://www.bohemiancoding.com/sketch/ns">
    <!-- Generator: Sketch 3.5.2 (25235) - http://www.bohemiancoding.com/sketch -->
    <title>logo</title>
    <desc>Created with Sketch.</desc>
    <defs></defs>
    <g id="Welcome" stroke="none" stroke-width="1" fill="none" fill-rule="evenodd" sketch:type="MSPage">
        <g id="Desktop---花葉" sketch:type="MSArtboardGroup" transform="translate(-267.000000, -102.000000)">
            <g id="logo" sketch:type="MSLayerGroup" transform="translate(269.000000, 104.000000)">
                <path d="M160.376,58.624 C160.376,58.336 160.52,58.048 160.856,57.808 C161.144,57.568 161.48,57.328 161.912,57.136 C162.296,56.944 162.68,56.8 163.112,56.656 C163.544,56.56 163.88,56.512 164.12,56.512 L166.184,56.512 C166.328,56.512 166.52,56.512 166.808,56.56 C167.048,56.608 167.336,56.656 167.624,56.704 C167.912,56.752 168.152,56.848 168.392,56.944 C168.632,57.04 168.728,57.184 168.728,57.328 C168.728,57.472 168.68,57.616 168.584,57.76 C168.44,57.904 168.344,58.048 168.248,58.192 C167.624,58.912 166.904,59.488 166.088,59.872 C165.272,60.304 164.36,60.496 163.352,60.496 C163.064,60.496 162.776,60.448 162.44,60.4 C162.104,60.352 161.768,60.208 161.48,60.064 C161.144,59.92 160.904,59.728 160.712,59.488 C160.472,59.248 160.376,58.96 160.376,58.624 L160.376,58.624 Z M146.168,31.264 L146.168,32.128 C146.216,32.176 146.168,32.32 146.12,32.512 C145.976,32.992 145.832,33.472 145.736,33.904 C145.592,34.384 145.496,34.864 145.448,35.344 C145.352,35.968 145.256,36.592 145.208,37.216 C145.16,37.84 145.064,38.512 145.016,39.136 C144.968,39.568 144.872,40 144.776,40.384 C144.632,40.768 144.584,41.2 144.584,41.632 C144.584,41.872 144.584,42.112 144.632,42.352 L144.632,43.12 C144.632,43.264 144.632,43.456 144.584,43.6 C144.536,43.744 144.536,43.936 144.536,44.08 L144.536,49.024 C144.584,49.168 144.632,49.408 144.584,49.696 C144.536,49.984 144.536,50.224 144.536,50.416 C144.536,50.8 144.584,51.184 144.728,51.52 C144.872,51.856 144.92,52.24 144.92,52.576 C144.92,52.672 144.92,52.768 144.872,52.864 C144.824,53.008 144.824,53.104 144.824,53.248 C144.824,53.584 144.872,53.92 145.016,54.256 C145.112,54.592 145.208,54.976 145.256,55.312 C145.304,55.648 145.352,56.032 145.304,56.368 C145.256,56.704 145.304,57.04 145.448,57.376 C145.688,58 145.88,58.576 146.12,59.2 C146.312,59.824 146.504,60.4 146.696,61.024 C146.84,61.408 146.936,61.792 147.08,62.224 C147.224,62.656 147.368,63.088 147.512,63.424 C147.56,63.568 147.704,63.664 147.848,63.712 C147.992,63.76 148.136,63.808 148.28,63.808 C148.424,63.808 148.664,63.712 149,63.472 C149.288,63.232 149.528,63.088 149.72,62.992 C150.056,62.848 150.248,62.608 150.248,62.272 L150.248,62.08 C150.296,61.84 150.296,61.552 150.248,61.312 C150.2,61.072 150.104,60.88 150.056,60.64 C149.912,60.016 149.864,59.344 149.864,58.624 C149.864,58.096 149.96,57.52 150.104,56.848 C150.248,56.224 150.44,55.648 150.584,55.216 C150.632,55.072 150.728,54.928 150.824,54.784 C150.872,54.64 150.968,54.496 151.064,54.352 C151.16,54.208 151.256,54.016 151.352,53.728 C151.4,53.44 151.496,53.2 151.544,53.056 C151.688,52.72 151.784,52.336 151.928,51.952 C152.024,51.616 152.168,51.232 152.36,50.896 C152.408,50.752 152.504,50.656 152.552,50.56 C152.6,50.464 152.648,50.368 152.696,50.224 C152.84,49.984 153.08,49.648 153.32,49.264 C153.56,48.928 153.752,48.544 153.992,48.112 C154.184,47.728 154.376,47.344 154.52,46.96 C154.664,46.576 154.76,46.24 154.76,45.952 C154.76,45.52 154.568,45.184 154.184,44.848 C153.8,44.512 153.416,44.368 152.984,44.368 C152.792,44.368 152.6,44.416 152.456,44.56 C152.312,44.656 152.168,44.896 151.928,45.232 C151.688,45.568 151.496,45.952 151.304,46.336 C151.064,46.768 150.872,47.152 150.68,47.488 C150.488,47.872 150.344,48.16 150.248,48.352 C150.104,48.736 149.96,49.12 149.816,49.504 C149.672,49.888 149.528,50.272 149.384,50.656 C149.24,50.944 149.144,51.232 149,51.52 C148.856,51.808 148.76,52.096 148.616,52.384 C148.568,52.528 148.472,52.72 148.376,52.96 C148.28,53.2 148.184,53.44 148.04,53.584 C148.04,53.584 148.04,53.584 147.992,53.632 L147.992,53.44 C147.992,53.248 147.992,53.056 148.04,52.864 L148.04,52.336 C148.04,52.192 148.04,52.096 147.992,52 C147.944,51.904 147.896,51.808 147.896,51.664 C147.896,51.472 147.896,51.28 147.944,51.088 C147.992,50.896 147.992,50.704 147.992,50.512 C147.992,50.032 147.944,49.552 147.896,49.12 C147.8,48.688 147.752,48.256 147.752,47.824 C147.752,47.68 147.752,47.536 147.8,47.488 C147.848,47.344 147.896,47.152 147.896,46.96 C147.848,46.816 147.848,46.624 147.848,46.48 C147.848,46.288 147.848,46.096 147.8,45.904 C147.752,45.712 147.752,45.52 147.752,45.328 C147.752,45.04 147.8,44.752 147.896,44.416 C147.944,44.128 148.04,43.84 148.088,43.6 C148.184,43.264 148.232,42.88 148.232,42.544 C148.184,42.208 148.184,41.824 148.184,41.44 C148.184,41.104 148.232,40.72 148.28,40.384 C148.328,40.048 148.424,39.712 148.568,39.376 C148.568,39.28 148.616,39.088 148.712,38.752 C148.808,38.464 148.904,38.272 148.952,38.128 C149.096,37.744 149.144,37.312 149.192,36.88 C149.24,36.448 149.24,36.016 149.288,35.584 C149.288,35.152 149.336,34.72 149.384,34.288 C149.432,33.856 149.576,33.376 149.72,32.944 C149.768,32.896 149.816,32.656 149.864,32.32 C149.912,32.176 149.912,32.032 149.96,31.792 C149.912,31.648 149.96,31.504 150.008,31.264 C150.056,31.024 150.152,30.784 150.248,30.496 C150.296,30.256 150.392,29.968 150.488,29.728 C150.536,29.488 150.584,29.344 150.584,29.2 C150.584,29.104 150.44,29.008 150.2,28.864 C149.96,28.768 149.672,28.672 149.384,28.528 C149.048,28.384 148.76,28.288 148.472,28.192 C148.184,28.144 147.992,28.096 147.896,28.096 C147.608,28.096 147.368,28.24 147.176,28.48 C146.936,28.72 146.792,29.008 146.648,29.344 C146.504,29.68 146.36,30.064 146.312,30.4 C146.216,30.736 146.168,31.024 146.168,31.264 L146.168,31.264 Z M174.488,38.608 L178.904,38.608 C179.048,38.56 179.144,38.512 179.24,38.512 C179.336,38.512 179.432,38.512 179.48,38.464 C179.528,38.416 179.528,38.368 179.576,38.224 C179.624,38.128 179.624,37.936 179.624,37.648 L179.624,37.168 C179.576,36.928 179.576,36.64 179.576,36.352 C179.528,36.064 179.48,35.824 179.432,35.584 C179.384,35.344 179.288,35.248 179.192,35.248 L179.048,35.248 C179,35.296 178.952,35.296 178.904,35.296 C178.856,35.344 178.76,35.344 178.664,35.344 L177.944,35.344 C177.704,35.344 177.416,35.296 177.176,35.248 C176.984,35.2 176.792,35.152 176.6,35.104 C176.36,35.056 176.168,35.056 175.976,35.056 C175.832,35.056 175.688,35.056 175.544,35.104 C175.4,35.152 175.304,35.152 175.16,35.152 C175.016,35.152 174.776,35.152 174.44,35.104 C174.104,35.056 173.864,35.008 173.72,34.912 C173.624,34.864 173.576,34.768 173.576,34.624 L173.576,34.336 C173.576,34.24 173.576,34.144 173.624,34.048 L173.624,33.76 C173.624,33.664 173.624,33.568 173.576,33.52 C173.528,33.472 173.48,33.376 173.48,33.28 L173.48,31.744 C173.48,31.312 173.48,30.88 173.528,30.352 C173.528,29.824 173.48,29.344 173.384,28.864 C173.288,28.432 173.096,28.048 172.856,27.712 C172.568,27.376 172.136,27.232 171.512,27.232 C170.888,27.232 170.408,27.28 170.12,27.376 C169.832,27.52 169.688,27.952 169.688,28.672 C169.688,29.248 169.736,29.824 169.784,30.352 C169.832,30.928 169.832,31.504 169.832,32.08 C169.832,32.608 169.784,33.088 169.736,33.568 C169.688,34.048 169.64,34.528 169.64,35.056 C169.64,35.104 169.592,35.152 169.448,35.152 C169.304,35.2 169.16,35.2 169.016,35.248 C168.824,35.296 168.632,35.296 168.488,35.296 L168.2,35.296 C167.912,35.296 167.672,35.296 167.48,35.248 C167.288,35.248 167.048,35.2 166.808,35.104 C166.52,35.008 166.232,34.96 165.896,34.96 C165.512,34.96 165.128,35.008 164.792,35.104 C164.408,35.2 164.024,35.248 163.64,35.248 C163.304,35.248 162.92,35.248 162.584,35.2 L161.48,35.2 L160.424,35.2 C160.376,35.2 160.232,35.2 159.992,35.152 L159.128,35.152 C158.792,35.2 158.552,35.248 158.312,35.296 C158.072,35.344 157.928,35.488 157.928,35.68 L157.928,37.36 C157.928,37.552 157.928,37.792 157.976,38.128 C157.976,38.464 158.12,38.608 158.408,38.608 C158.456,38.656 158.552,38.704 158.696,38.656 L158.936,38.656 C159.128,38.656 159.32,38.608 159.512,38.56 C159.656,38.512 159.848,38.512 160.04,38.512 C160.328,38.512 160.616,38.56 160.904,38.656 C161.144,38.752 161.432,38.8 161.672,38.8 C161.816,38.8 161.912,38.8 161.96,38.752 C162.296,38.704 162.68,38.656 163.016,38.656 C163.352,38.704 163.688,38.704 164.024,38.704 L165.032,38.704 C165.368,38.752 165.704,38.752 166.04,38.752 C166.472,38.752 166.856,38.752 167.24,38.704 C167.624,38.656 168.008,38.656 168.44,38.656 C169.064,38.656 169.496,38.752 169.64,38.944 C169.784,39.136 169.88,39.568 169.88,40.192 C169.88,40.816 169.832,41.488 169.736,42.112 C169.592,42.736 169.544,43.408 169.544,44.032 C169.544,44.56 169.592,45.04 169.736,45.52 C169.832,46 169.88,46.48 169.88,47.008 C169.88,47.248 169.88,47.536 169.928,47.824 C169.928,48.112 169.88,48.4 169.832,48.64 C169.784,48.832 169.736,48.976 169.736,49.12 C169.736,49.312 169.736,49.504 169.784,49.696 C169.832,49.888 169.784,50.08 169.736,50.272 C169.688,50.32 169.688,50.464 169.64,50.608 C169.592,50.752 169.544,50.896 169.544,50.944 C169.544,51.184 169.544,51.424 169.592,51.664 C169.64,51.904 169.64,52.144 169.64,52.384 L169.64,52.576 C169.592,52.72 169.544,52.864 169.544,52.912 C169.496,52.96 169.4,53.104 169.256,53.248 C169.112,53.296 168.92,53.344 168.776,53.392 C168.632,53.44 168.44,53.44 168.248,53.44 C167.72,53.44 167.096,53.392 166.424,53.296 C165.752,53.2 165.08,53.152 164.456,53.152 C164.216,53.152 163.976,53.152 163.736,53.104 C163.496,53.104 163.256,53.152 163.016,53.2 C162.776,53.248 162.584,53.344 162.392,53.392 C162.152,53.488 161.96,53.584 161.72,53.632 C161.528,53.68 161.336,53.728 161.144,53.728 C160.904,53.776 160.712,53.824 160.568,53.92 C160.184,54.112 159.8,54.304 159.368,54.544 C158.936,54.784 158.504,55.072 158.168,55.36 C157.832,55.696 157.544,56.032 157.304,56.416 C157.064,56.8 156.968,57.232 156.968,57.76 C156.968,58.288 156.968,58.768 157.016,59.2 C157.016,59.632 157.112,60.112 157.304,60.544 C157.448,60.88 157.64,61.216 157.928,61.552 C158.216,61.888 158.552,62.224 158.936,62.512 C159.272,62.8 159.656,63.04 160.088,63.232 C160.472,63.424 160.856,63.52 161.24,63.52 C161.384,63.52 161.528,63.52 161.672,63.472 L162.104,63.472 C162.44,63.472 162.824,63.472 163.208,63.52 C163.592,63.568 163.976,63.568 164.312,63.568 C164.552,63.568 164.84,63.52 165.224,63.472 C165.56,63.424 165.944,63.328 166.328,63.232 C166.712,63.136 167.096,63.04 167.432,62.896 C167.768,62.752 168.008,62.656 168.2,62.512 C168.344,62.464 168.44,62.368 168.536,62.224 C168.584,62.128 168.728,62.032 168.872,61.984 C168.92,61.984 168.968,61.936 169.112,61.888 C169.448,61.696 169.736,61.504 170.024,61.312 C170.312,61.12 170.552,60.88 170.792,60.592 C170.936,60.448 171.032,60.256 171.176,60.016 C171.272,59.824 171.368,59.632 171.512,59.44 C171.656,59.248 171.8,59.104 171.944,58.96 C172.088,58.816 172.328,58.768 172.568,58.768 C172.712,58.768 172.856,58.768 173.048,58.816 C173.24,58.864 173.384,58.912 173.48,58.96 C173.624,59.008 173.768,59.104 173.912,59.248 C174.008,59.392 174.104,59.536 174.248,59.632 C174.584,59.872 174.872,60.064 175.16,60.208 C175.4,60.304 175.64,60.4 175.976,60.544 C176.312,60.688 176.552,60.88 176.696,61.024 C176.744,61.072 176.84,61.12 176.936,61.168 C177.032,61.216 177.128,61.264 177.224,61.312 C177.464,61.36 177.704,61.552 177.944,61.792 C178.184,62.032 178.376,62.176 178.52,62.176 C178.664,62.176 178.808,62.128 178.904,62.08 C178.952,62.032 179.048,61.936 179.096,61.84 C179.144,61.792 179.192,61.696 179.24,61.648 C179.48,61.456 179.72,61.168 179.96,60.784 C180.2,60.448 180.344,60.112 180.344,59.824 C180.344,59.584 180.2,59.296 179.864,59.008 C179.528,58.768 179.192,58.48 178.76,58.192 C178.328,57.952 177.944,57.712 177.512,57.472 C177.08,57.232 176.792,57.088 176.6,56.944 C176.456,56.8 176.264,56.704 176.12,56.56 C175.976,56.416 175.784,56.32 175.592,56.272 C175.304,56.128 174.92,55.984 174.488,55.792 C174.008,55.648 173.672,55.408 173.528,55.168 C173.384,54.976 173.288,54.736 173.24,54.448 C173.192,54.16 173.144,53.92 173.144,53.68 C173.144,53.152 173.192,52.624 173.24,52.096 C173.288,51.568 173.336,51.04 173.336,50.512 L173.336,47.152 C173.336,47.008 173.336,46.816 173.384,46.624 C173.432,46.432 173.432,46.24 173.432,46.048 C173.48,45.184 173.528,44.32 173.528,43.456 L173.528,40.864 L173.528,39.616 C173.48,39.184 173.48,38.8 173.48,38.368 C173.624,38.368 173.816,38.416 173.96,38.464 C174.104,38.56 174.296,38.608 174.488,38.608 L174.488,38.608 Z M224.36,50.512 C224.36,50.32 224.36,50.08 224.312,49.792 C224.264,49.504 224.168,49.216 224.12,48.88 C224.024,48.592 223.928,48.304 223.88,48.016 C223.784,47.728 223.688,47.488 223.592,47.344 C223.544,47.2 223.448,47.104 223.4,47.008 C223.352,46.912 223.256,46.816 223.208,46.672 C223.16,46.528 223.112,46.384 223.064,46.24 C223.016,46.096 222.968,46 222.92,45.856 C222.824,45.472 222.584,45.088 222.248,44.704 C221.912,44.368 221.48,44.032 221.048,43.696 C220.568,43.36 220.088,43.072 219.608,42.832 C219.128,42.592 218.696,42.448 218.36,42.352 C217.976,42.208 217.592,42.16 217.208,42.16 C216.824,42.16 216.44,42.112 216.104,42.016 C215.672,41.872 215.192,41.776 214.76,41.68 C214.328,41.584 213.848,41.536 213.416,41.536 C212.84,41.536 212.168,41.584 211.352,41.68 C210.536,41.776 209.816,41.872 209.24,41.968 C208.808,42.016 208.424,42.064 208.04,42.112 C207.608,42.16 207.224,42.208 206.792,42.304 C206.648,42.352 206.504,42.352 206.36,42.352 C206.216,42.352 206.024,42.352 205.88,42.4 C205.64,42.448 205.4,42.496 205.16,42.496 C204.92,42.544 204.68,42.592 204.44,42.64 C204.392,42.688 204.2,42.736 203.816,42.832 C203.432,42.976 203,43.072 202.568,43.216 C202.136,43.36 201.704,43.456 201.272,43.6 C200.84,43.744 200.6,43.792 200.456,43.84 C200.12,43.936 199.784,43.984 199.496,43.984 C199.16,43.984 198.824,44.032 198.488,44.176 C197.72,44.416 196.952,44.704 196.184,44.944 C195.416,45.184 194.648,45.424 193.88,45.616 C193.784,45.664 193.64,45.712 193.496,45.76 C193.352,45.808 193.208,45.904 193.16,46 C193.112,46.048 193.112,46.192 193.112,46.336 C193.112,46.624 193.16,46.864 193.304,47.104 C193.4,47.344 193.496,47.632 193.64,47.872 C193.736,48.112 193.832,48.352 193.976,48.64 C194.072,48.928 194.264,49.072 194.6,49.072 C194.888,49.072 195.272,48.976 195.704,48.736 C196.136,48.544 196.52,48.4 196.856,48.256 C197.288,48.112 197.768,47.968 198.2,47.92 C198.632,47.872 199.112,47.728 199.544,47.584 C199.88,47.44 200.264,47.296 200.6,47.152 C200.936,47.008 201.272,46.96 201.656,46.912 C202.088,46.864 202.472,46.768 202.856,46.624 C203.096,46.528 203.384,46.432 203.624,46.336 C203.864,46.288 204.104,46.192 204.344,46.144 C204.44,46.096 204.536,46.096 204.632,46.096 C204.68,46.096 204.776,46.096 204.872,46.048 C205.208,45.952 205.496,45.856 205.784,45.712 C206.072,45.616 206.36,45.52 206.696,45.472 C207.128,45.424 207.608,45.328 208.088,45.232 C208.568,45.136 209.048,45.088 209.48,45.088 C209.624,45.088 209.816,45.04 209.96,44.992 C210.104,44.944 210.248,44.896 210.392,44.896 C210.584,44.896 210.776,44.896 210.968,44.944 C211.112,44.992 211.304,44.992 211.496,44.992 L211.976,44.992 C212.12,45.04 212.264,44.992 212.408,44.944 C212.6,44.896 212.744,44.848 212.888,44.848 C214.232,44.848 215.384,44.992 216.344,45.28 C217.256,45.616 218.216,46.288 219.128,47.296 C219.512,47.728 219.8,48.112 219.944,48.448 C220.088,48.784 220.184,49.216 220.328,49.792 C220.376,50.032 220.424,50.224 220.472,50.416 C220.52,50.608 220.52,50.8 220.52,51.04 C220.52,51.376 220.472,51.664 220.376,51.904 C220.28,52.192 220.184,52.48 220.088,52.816 C220.04,53.056 219.992,53.248 219.992,53.44 C219.944,53.68 219.896,53.872 219.8,54.112 C219.704,54.352 219.56,54.592 219.368,54.832 C219.128,55.12 218.888,55.408 218.648,55.648 C218.408,55.936 218.12,56.176 217.88,56.416 C217.64,56.656 217.4,56.8 217.16,56.896 C216.632,57.136 216.056,57.424 215.528,57.712 C215.24,57.856 214.952,58 214.616,58.048 C214.28,58.144 213.992,58.24 213.656,58.384 C212.792,58.72 211.928,59.056 211.016,59.392 C210.104,59.728 209.144,59.92 208.184,59.92 L207.176,59.92 C206.84,59.92 206.456,59.968 206.072,60.016 L205.88,60.16 L205.448,60.16 C205.16,60.208 204.872,60.208 204.536,60.256 C204.2,60.304 203.912,60.4 203.672,60.448 C203.384,60.544 203.192,60.64 203.144,60.784 C203.096,60.88 203.096,61.024 203.096,61.264 C203.096,61.36 203.144,61.504 203.192,61.744 C203.24,61.984 203.336,62.176 203.432,62.416 C203.48,62.656 203.576,62.896 203.672,63.088 C203.72,63.328 203.816,63.472 203.864,63.52 L203.96,63.52 C203.96,63.568 203.96,63.568 204.008,63.568 C204.056,63.568 204.056,63.568 204.104,63.52 L204.152,63.52 C204.248,63.52 204.344,63.52 204.488,63.472 L204.776,63.472 C205.016,63.472 205.304,63.472 205.592,63.52 C205.832,63.568 206.12,63.52 206.36,63.472 C206.744,63.424 207.128,63.328 207.512,63.28 C207.896,63.232 208.28,63.184 208.664,63.184 L209.144,63.184 C209.288,63.232 209.432,63.232 209.576,63.232 C210.056,63.232 210.632,63.136 211.304,62.944 C211.976,62.752 212.552,62.608 213.032,62.464 C213.416,62.368 213.8,62.272 214.184,62.176 C214.52,62.08 214.904,61.984 215.24,61.84 C215.576,61.696 215.96,61.552 216.296,61.408 C216.632,61.264 216.968,61.12 217.304,61.024 C217.448,60.976 217.688,60.88 218.024,60.736 C218.312,60.592 218.504,60.496 218.648,60.448 C220.088,59.488 221.288,58.384 222.296,57.088 C223.256,55.792 223.832,54.304 224.072,52.528 C224.12,52.192 224.216,51.856 224.264,51.52 C224.312,51.184 224.36,50.848 224.36,50.512 L224.36,50.512 Z M270.728,33.664 L269,33.664 C268.424,33.712 267.848,33.712 267.32,33.712 C267.272,33.712 267.272,33.712 267.224,33.664 C267.176,33.616 267.08,33.616 267.032,33.616 C266.792,33.616 266.552,33.616 266.312,33.664 C266.072,33.712 265.832,33.712 265.592,33.712 C265.256,33.712 264.968,33.664 264.68,33.616 C264.392,33.568 264.104,33.52 263.768,33.52 C263.432,33.52 263.048,33.568 262.712,33.616 C262.328,33.712 261.944,33.76 261.608,33.76 L261.32,33.76 C261.176,33.712 261.032,33.664 260.888,33.664 C260.744,33.712 260.648,33.616 260.504,33.376 C260.36,33.136 260.264,32.752 260.216,32.224 C260.168,31.744 260.12,31.36 260.12,31.024 C260.12,30.88 260.12,30.688 260.168,30.496 L260.168,29.968 C260.168,29.728 260.168,29.44 260.12,29.152 C260.072,28.912 260.024,28.624 260.024,28.384 C260.024,28.144 260.072,27.856 260.12,27.616 C260.168,27.376 260.216,27.088 260.216,26.848 C260.216,26.608 260.216,26.416 260.168,26.272 C260.12,26.176 259.976,26.128 259.64,26.128 L259.304,26.128 C259.208,26.176 259.112,26.176 258.968,26.176 C258.68,26.176 258.44,26.128 258.2,26.08 C257.96,26.032 257.672,25.984 257.432,25.984 C257.288,25.984 257.144,25.984 257,25.936 C256.808,25.936 256.664,26.032 256.616,26.176 C256.568,26.224 256.568,26.272 256.52,26.416 C256.472,26.56 256.472,26.752 256.472,26.896 C256.424,27.088 256.424,27.232 256.424,27.376 C256.376,27.52 256.376,27.664 256.376,27.712 C256.376,27.856 256.376,27.952 256.424,28 L256.424,28.48 C256.376,28.72 256.376,28.912 256.328,28.96 L256.328,30.16 C256.328,30.4 256.328,30.688 256.376,30.976 C256.424,31.312 256.424,31.6 256.424,31.888 C256.376,32.224 256.328,32.464 256.232,32.704 C256.088,32.944 255.896,33.136 255.56,33.232 C255.224,33.328 254.888,33.424 254.6,33.472 C254.312,33.52 253.976,33.568 253.592,33.568 C253.304,33.568 253.016,33.568 252.776,33.52 C252.536,33.52 252.248,33.52 251.96,33.568 C251.72,33.616 251.528,33.616 251.288,33.664 C251.048,33.712 250.856,33.712 250.664,33.712 C250.424,33.712 250.184,33.664 249.992,33.616 C249.8,33.568 249.608,33.568 249.368,33.52 C249.08,33.472 248.792,33.424 248.504,33.424 C248.216,33.472 247.928,33.472 247.688,33.472 C247.208,33.472 246.728,33.472 246.296,33.52 C245.816,33.568 245.336,33.616 244.856,33.616 L241.256,33.616 C241.112,33.616 240.92,33.616 240.728,33.568 C240.488,33.52 240.344,33.616 240.296,33.808 C240.296,33.856 240.296,33.952 240.248,34.192 C240.2,34.432 240.2,34.72 240.152,35.008 C240.104,35.296 240.104,35.584 240.104,35.824 C240.056,36.112 240.056,36.304 240.056,36.352 C240.056,36.688 240.152,36.928 240.392,36.976 C240.584,37.072 240.824,37.12 241.16,37.12 C241.304,37.12 241.496,37.12 241.688,37.072 C241.88,37.024 242.072,37.024 242.264,37.024 L243.896,37.024 C244.424,37.024 244.952,37.072 245.48,37.12 C245.912,37.168 246.296,37.168 246.728,37.216 C247.112,37.264 247.496,37.264 247.928,37.264 C248.168,37.216 248.312,37.168 248.456,37.12 C248.792,36.976 248.936,36.928 248.984,36.928 C249.224,37.024 249.512,37.072 249.848,37.072 C250.184,37.12 250.472,37.12 250.76,37.12 C250.952,37.12 251.144,37.12 251.336,37.072 C251.48,37.024 251.672,37.024 251.864,37.024 C252.2,37.024 252.488,37.024 252.776,37.072 C253.016,37.12 253.304,37.168 253.64,37.168 C253.88,37.168 254.168,37.12 254.456,37.024 C254.696,36.928 254.984,36.88 255.224,36.88 L256.088,36.88 C256.376,36.88 256.616,37.024 256.856,37.264 C257.048,37.504 257.192,37.84 257.336,38.224 C257.48,38.608 257.576,38.992 257.624,39.424 C257.672,39.856 257.768,40.288 257.816,40.72 C257.864,41.152 257.912,41.488 257.96,41.824 C258.008,42.064 258.104,42.304 258.152,42.544 C258.2,42.784 258.248,43.024 258.296,43.264 C258.392,43.696 258.536,44.128 258.728,44.512 C258.872,44.848 259.16,45.28 259.496,45.76 C259.832,46.24 259.976,46.672 259.976,47.008 C259.976,47.152 259.928,47.248 259.784,47.392 C259.64,47.536 259.448,47.632 259.256,47.728 C259.064,47.872 258.872,47.968 258.68,48.064 C258.488,48.16 258.344,48.208 258.248,48.256 C258.008,48.304 257.768,48.352 257.528,48.4 C257.288,48.448 257.048,48.448 256.808,48.448 C256.376,48.448 255.944,48.4 255.512,48.304 C255.08,48.208 254.696,48.16 254.36,48.16 C254.12,48.16 253.88,48.16 253.688,48.208 C253.448,48.256 253.208,48.256 252.968,48.256 C252.824,48.256 252.68,48.256 252.536,48.208 C252.392,48.16 252.2,48.16 252.056,48.16 C251.72,48.16 251.384,48.208 250.952,48.352 C250.52,48.496 250.136,48.592 249.8,48.688 C248.312,49.12 247.16,49.744 246.344,50.56 C245.528,51.376 244.952,52.528 244.712,54.112 C244.664,54.448 244.616,54.832 244.568,55.168 C244.52,55.552 244.472,55.936 244.472,56.32 C244.472,56.464 244.472,56.704 244.52,56.992 C244.52,57.28 244.568,57.472 244.616,57.616 C244.664,57.808 244.76,58 244.904,58.192 C245,58.384 245.096,58.576 245.192,58.768 C245.336,59.056 245.432,59.392 245.528,59.728 C245.576,59.872 245.672,60.016 245.816,60.208 C245.96,60.448 246.152,60.64 246.344,60.88 C246.536,61.12 246.728,61.312 246.92,61.456 C247.112,61.648 247.256,61.744 247.352,61.792 C247.4,61.84 247.496,61.888 247.544,61.888 C247.592,61.936 247.688,61.984 247.736,62.032 C248.168,62.272 248.552,62.512 248.984,62.656 C249.368,62.8 249.8,62.992 250.232,63.136 C250.664,63.28 251.096,63.472 251.528,63.664 C251.912,63.856 252.344,64 252.776,64.144 C253.592,64.384 254.408,64.576 255.224,64.72 C256.04,64.864 256.904,64.912 257.72,64.912 C257.912,64.912 258.104,64.912 258.296,64.864 C258.488,64.816 258.68,64.816 258.872,64.816 C259.304,64.816 259.688,64.864 260.072,64.96 C260.456,65.008 260.84,65.056 261.272,65.056 C261.8,65.056 262.376,65.056 262.952,65.008 C263.528,64.96 264.104,64.912 264.632,64.912 C265.064,64.912 265.448,64.96 265.832,65.008 C266.216,65.056 266.6,65.056 267.032,65.056 C267.176,65.056 267.32,65.056 267.56,65.008 C267.8,64.96 267.896,64.864 267.896,64.72 C267.896,64.48 267.896,64.24 267.848,63.952 C267.8,63.712 267.8,63.472 267.8,63.232 L267.8,61.888 C267.8,61.552 267.464,61.408 266.84,61.408 L266.36,61.408 C266.216,61.456 266.024,61.456 265.88,61.456 C265.64,61.456 265.4,61.408 265.16,61.36 C264.92,61.312 264.68,61.312 264.44,61.312 C264.2,61.312 263.96,61.36 263.72,61.408 C263.432,61.504 263.192,61.6 263,61.648 C262.76,61.504 262.472,61.456 262.04,61.408 L261.032,61.408 L260.84,61.408 C260.792,61.408 260.744,61.408 260.696,61.456 C260.648,61.504 260.552,61.504 260.456,61.504 C260.36,61.504 260.264,61.504 260.216,61.456 L259.928,61.456 C259.88,61.408 259.784,61.36 259.64,61.36 C259.496,61.408 259.352,61.408 259.304,61.408 C259.064,61.408 258.872,61.408 258.68,61.456 C258.488,61.504 258.296,61.552 258.056,61.552 C257.624,61.552 257.192,61.456 256.76,61.312 C256.328,61.168 255.896,61.072 255.464,61.024 C255.032,60.976 254.6,60.928 254.168,60.88 C253.736,60.88 253.304,60.832 252.872,60.688 C252.056,60.448 251.432,60.208 250.952,59.872 C250.472,59.536 249.944,59.152 249.32,58.624 C249.272,58.576 249.224,58.528 249.128,58.432 C249.032,58.384 248.984,58.336 248.936,58.288 C248.792,58.048 248.648,57.856 248.6,57.712 C248.504,57.568 248.456,57.472 248.408,57.328 C248.36,57.232 248.36,57.088 248.312,56.944 C248.264,56.8 248.216,56.56 248.168,56.32 C248.12,56.128 248.072,55.936 248.072,55.792 C248.072,55.264 248.12,54.88 248.168,54.736 C248.216,54.592 248.408,54.256 248.648,53.824 C248.984,53.2 249.416,52.72 249.896,52.48 C250.376,52.24 250.952,52 251.672,51.856 C252.008,51.808 252.392,51.712 252.776,51.616 C253.16,51.568 253.544,51.52 253.88,51.52 L254.024,51.52 C254.072,51.568 254.12,51.568 254.168,51.568 C254.216,51.616 254.312,51.664 254.36,51.664 C254.6,51.664 254.84,51.664 255.08,51.616 L255.8,51.616 C255.944,51.616 256.04,51.616 256.184,51.664 C256.328,51.712 256.472,51.76 256.616,51.76 C256.856,51.76 257.144,51.76 257.432,51.808 C257.672,51.856 257.96,51.856 258.2,51.856 C258.344,51.856 258.488,51.856 258.536,51.808 C259.064,51.76 259.544,51.712 260.024,51.616 C260.456,51.568 260.84,51.472 261.272,51.328 C261.704,51.184 262.04,51.04 262.328,50.8 C262.376,50.752 262.424,50.704 262.568,50.56 C262.712,50.416 262.76,50.368 262.808,50.368 C262.856,50.368 263.144,50.512 263.576,50.8 C264.008,51.088 264.584,51.424 265.208,51.76 C265.832,52.096 266.456,52.432 267.08,52.72 C267.704,53.008 268.28,53.152 268.712,53.152 C268.856,53.152 269,53.056 269.192,52.816 C269.336,52.576 269.528,52.336 269.672,52.048 C269.816,51.76 269.912,51.472 270.008,51.184 C270.104,50.896 270.152,50.704 270.152,50.56 C270.152,50.368 270.104,50.224 269.96,50.08 C269.816,49.984 269.624,49.888 269.384,49.792 C269.144,49.696 268.952,49.6 268.712,49.504 C268.472,49.456 268.328,49.36 268.184,49.312 C268.04,49.216 267.896,49.12 267.752,48.976 C267.608,48.832 267.416,48.736 267.272,48.688 C267.272,48.64 267.128,48.544 266.888,48.352 C266.6,48.208 266.312,47.968 265.976,47.728 C265.64,47.488 265.304,47.248 264.968,46.96 C264.632,46.72 264.392,46.48 264.248,46.24 C263.96,45.856 263.672,45.472 263.432,45.04 C263.192,44.656 262.904,44.272 262.616,43.888 C262.472,43.696 262.424,43.552 262.424,43.456 C262.424,43.216 262.328,42.928 262.184,42.64 C261.992,42.4 261.848,42.112 261.8,41.872 C261.752,41.632 261.704,41.392 261.656,41.152 C261.608,40.912 261.56,40.72 261.512,40.576 C261.512,40.384 261.464,40.192 261.416,40 C261.368,39.856 261.32,39.664 261.272,39.472 C261.224,39.04 261.176,38.656 261.08,38.272 C260.936,37.888 260.888,37.504 260.888,37.072 C260.888,36.928 260.936,36.88 261.08,36.88 C261.224,36.88 261.368,36.88 261.512,36.928 C261.656,36.976 261.8,37.024 261.944,37.024 L265.352,37.024 C265.976,37.024 266.648,36.976 267.272,36.88 C267.896,36.832 268.568,36.784 269.192,36.784 C269.432,36.784 269.672,36.832 269.912,36.88 C270.104,36.928 270.344,36.976 270.584,36.976 L272.12,36.976 L272.6,36.976 C272.792,36.976 272.984,36.976 273.176,36.928 C273.368,36.928 273.56,36.88 273.704,36.784 C273.848,36.736 273.896,36.592 273.896,36.4 C273.896,36.256 273.896,36.064 273.848,35.92 C273.8,35.776 273.8,35.632 273.8,35.488 C273.8,35.296 273.848,35.104 273.944,34.912 C273.944,34.768 273.944,34.624 273.992,34.48 L273.992,34.096 C273.992,33.76 273.8,33.616 273.416,33.568 L272.552,33.568 C272.408,33.568 272.264,33.568 272.216,33.616 C272.072,33.616 271.88,33.616 271.736,33.664 C271.544,33.712 271.352,33.76 271.208,33.76 C271.064,33.76 270.968,33.712 270.92,33.664 L270.728,33.664 Z M305.528,29.152 C305.768,29.488 306.104,29.824 306.44,30.064 C306.776,30.352 307.064,30.64 307.4,30.976 L307.4,31.072 C307.4,31.12 307.4,31.12 307.448,31.12 C307.448,31.264 307.352,31.456 307.112,31.648 C306.872,31.84 306.68,31.984 306.584,32.032 C306.248,32.32 305.864,32.56 305.48,32.752 C305.048,32.992 304.664,33.232 304.328,33.568 C304.136,33.712 303.944,33.856 303.8,34 C303.608,34.144 303.416,34.336 303.224,34.48 C302.984,34.624 302.792,34.816 302.648,34.96 C302.456,35.152 302.264,35.296 302.024,35.44 C301.688,35.632 301.4,35.824 301.16,36.016 C300.92,36.208 300.632,36.448 300.344,36.688 C300.008,36.976 299.672,37.264 299.384,37.552 C299.096,37.888 298.808,38.224 298.52,38.56 C298.28,38.896 298.04,39.184 297.8,39.52 C297.56,39.856 297.32,40.192 297.032,40.48 C296.888,40.624 296.744,40.816 296.6,40.96 C296.456,41.104 296.264,41.296 296.12,41.44 C295.784,41.776 295.496,42.304 295.208,42.976 C294.872,43.696 294.632,44.224 294.44,44.608 L294.44,44.944 C294.488,45.088 294.488,45.424 294.44,45.856 C294.392,46.336 294.344,46.672 294.344,46.912 C294.344,47.248 294.392,47.536 294.536,47.824 C294.632,48.112 294.728,48.4 294.872,48.64 C295.4,49.84 296.072,50.752 296.84,51.472 C297.56,52.192 298.472,52.912 299.576,53.632 C299.816,53.776 300.056,53.968 300.248,54.16 C300.44,54.352 300.68,54.544 300.92,54.688 C301.16,54.832 301.448,54.976 301.688,55.072 L302.408,55.504 C302.6,55.648 302.792,55.744 303.032,55.84 C303.224,55.984 303.416,56.128 303.56,56.272 C303.608,56.32 303.704,56.416 303.8,56.464 C303.848,56.56 303.944,56.608 303.992,56.608 C304.088,56.704 304.232,56.8 304.376,56.848 C304.52,56.896 304.616,56.992 304.712,57.088 C305.336,57.616 306.008,58.24 306.776,58.96 C307.544,59.728 308.12,60.448 308.504,61.12 C308.792,61.648 309.032,62.224 309.272,62.848 C309.464,63.52 309.608,64.144 309.704,64.72 C309.704,64.768 309.704,64.864 309.752,65.008 C309.752,65.152 309.8,65.248 309.848,65.296 C309.896,65.44 310.136,65.536 310.52,65.584 C310.904,65.584 311.192,65.584 311.336,65.632 C311.48,65.68 311.624,65.68 311.72,65.728 C311.768,65.776 311.912,65.776 312.056,65.776 C312.2,65.776 312.44,65.728 312.68,65.68 C312.92,65.632 313.112,65.536 313.352,65.44 C313.544,65.296 313.736,65.152 313.88,65.008 C314.024,64.864 314.12,64.672 314.12,64.48 C314.12,63.856 313.928,63.232 313.592,62.608 C313.208,61.984 312.92,61.408 312.68,60.784 C312.488,60.208 312.248,59.728 312.008,59.392 C311.72,59.056 311.432,58.672 311.096,58.192 C310.808,57.76 310.52,57.328 310.28,56.896 C309.992,56.512 309.656,56.176 309.224,55.84 C309.08,55.696 308.888,55.552 308.648,55.504 C308.408,55.456 308.216,55.312 308.072,55.168 C307.928,55.024 307.736,54.832 307.592,54.64 C307.4,54.496 307.208,54.304 307.016,54.16 C306.68,53.872 306.344,53.632 305.96,53.44 C305.528,53.248 305.144,53.056 304.808,52.864 C304.712,52.816 304.616,52.768 304.472,52.624 C304.424,52.576 304.328,52.528 304.184,52.432 C303.992,52.336 303.8,52.24 303.608,52.096 C303.368,52 303.176,51.904 302.984,51.808 C302.792,51.712 302.648,51.664 302.6,51.616 C302.072,51.328 301.544,50.944 301.064,50.512 C300.536,50.08 300.056,49.696 299.624,49.312 C299.576,49.264 299.48,49.168 299.336,49.024 C299.192,48.928 299.096,48.832 299.048,48.784 C298.952,48.64 298.856,48.496 298.808,48.352 C298.712,48.208 298.616,48.064 298.52,47.92 C298.376,47.68 298.232,47.44 298.136,47.2 C298.04,46.96 297.992,46.72 297.992,46.48 C297.992,46.048 298.088,45.712 298.232,45.52 C298.376,45.328 298.52,45.04 298.664,44.704 C298.712,44.56 298.808,44.368 298.856,44.224 C298.904,44.08 298.952,43.936 299,43.792 C299.096,43.648 299.192,43.456 299.336,43.264 C299.48,43.12 299.576,42.928 299.672,42.784 C299.816,42.496 299.96,42.208 300.104,41.968 C300.2,41.728 300.392,41.488 300.632,41.248 C301.064,40.912 301.448,40.624 301.88,40.288 C302.264,39.952 302.648,39.616 303.032,39.28 C303.176,39.136 303.368,38.944 303.512,38.8 C303.656,38.656 303.8,38.512 303.944,38.368 C304.184,38.128 304.472,37.984 304.808,37.84 C305.096,37.696 305.384,37.504 305.624,37.264 C306.008,36.928 306.392,36.544 306.728,36.208 C307.064,35.872 307.448,35.536 307.88,35.2 C308.168,35.008 308.456,34.816 308.792,34.672 C309.128,34.528 309.416,34.384 309.704,34.24 C310.136,34 310.568,33.664 311.048,33.328 C311.528,32.992 312.008,32.704 312.44,32.416 C312.584,32.368 312.776,32.224 313.016,32.08 C313.256,31.936 313.496,31.792 313.736,31.6 C313.976,31.408 314.168,31.216 314.36,31.024 C314.504,30.832 314.6,30.64 314.6,30.496 C314.6,30.352 314.552,30.256 314.408,30.112 C314.36,30.064 314.264,29.968 314.12,29.776 C313.976,29.632 313.784,29.44 313.64,29.248 C313.448,29.056 313.256,28.864 313.112,28.72 C312.92,28.576 312.824,28.48 312.776,28.48 L312.632,28.48 C312.392,28.48 312.152,28.528 311.912,28.624 C311.672,28.768 311.384,28.816 311.144,28.816 C310.28,28.816 309.608,28.576 309.08,28.144 C308.552,27.712 308.12,27.184 307.784,26.656 C307.448,26.128 307.112,25.648 306.824,25.216 C306.536,24.784 306.2,24.544 305.816,24.544 C305.432,24.544 305,24.64 304.568,24.832 C304.088,25.024 303.848,25.36 303.848,25.84 C303.848,26.368 304.088,26.896 304.52,27.424 C304.952,27.952 305.288,28.48 305.528,28.912 L305.528,29.152 Z M371.864,32.704 C372.2,32.704 372.44,32.704 372.584,32.656 C372.824,32.608 372.968,32.512 373.064,32.32 C373.16,32.176 373.256,31.936 373.304,31.696 C373.352,31.456 373.352,31.216 373.352,30.976 L373.352,30.352 L373.352,29.92 C373.352,29.776 373.304,29.632 373.256,29.536 C373.256,29.392 373.16,29.344 373.016,29.344 L368.696,29.344 C367.208,29.392 365.768,29.392 364.328,29.392 C363.464,29.392 362.936,29.296 362.744,29.056 C362.504,28.816 362.408,28.288 362.408,27.424 C362.408,27.184 362.456,26.992 362.504,26.752 C362.552,26.56 362.552,26.368 362.552,26.128 L362.552,25.12 C362.552,24.88 362.504,24.64 362.456,24.448 C362.36,24.304 362.216,24.16 361.976,24.112 C361.736,24.064 361.448,24.016 361.016,24.016 L360.008,24.016 C359.672,24.064 359.288,24.064 358.952,24.064 C358.952,24.208 358.952,24.304 358.904,24.4 C358.856,24.496 358.856,24.592 358.856,24.736 C358.856,25.168 358.856,25.6 358.904,26.032 C358.952,26.464 358.952,26.896 358.952,27.328 L358.952,28.432 C358.952,28.672 358.904,28.864 358.76,29.008 C358.616,29.152 358.424,29.2 358.184,29.248 C357.896,29.296 357.512,29.296 356.984,29.296 C356.84,29.296 356.744,29.296 356.648,29.344 C356.552,29.392 356.456,29.44 356.312,29.44 C355.304,29.44 354.248,29.392 353.24,29.344 C352.184,29.296 351.128,29.296 350.12,29.296 C349.784,29.296 349.448,29.296 349.112,29.344 C348.776,29.392 348.44,29.44 348.104,29.44 L347.528,29.44 C347.288,29.44 347.048,29.392 346.904,29.248 C346.856,29.104 346.808,28.72 346.856,28.192 C346.856,27.664 346.856,27.088 346.808,26.464 C346.76,25.888 346.712,25.36 346.568,24.88 C346.424,24.4 346.232,24.112 345.944,24.064 C345.8,24.016 345.56,24.016 345.224,24.016 L344.264,24.016 C344.024,24.016 343.832,24.112 343.688,24.256 C343.544,24.448 343.4,24.64 343.352,24.88 C343.304,25.12 343.256,25.408 343.208,25.648 C343.16,25.888 343.16,26.128 343.16,26.272 C343.16,26.512 343.16,26.704 343.208,26.896 L343.208,27.568 C343.208,27.76 343.208,27.952 343.256,28.144 C343.304,28.384 343.304,28.576 343.256,28.768 C343.208,28.96 343.16,29.104 343.064,29.2 C342.968,29.344 342.776,29.392 342.536,29.392 C341.624,29.392 340.664,29.392 339.704,29.344 C338.744,29.296 337.784,29.296 336.872,29.296 L336.296,29.296 C336.104,29.296 335.912,29.296 335.768,29.344 C335.336,29.392 334.808,29.392 334.28,29.392 C333.752,29.44 333.272,29.632 332.936,29.968 C332.792,30.112 332.696,30.304 332.648,30.544 C332.6,30.784 332.6,30.976 332.6,31.216 C332.6,31.6 332.6,31.888 332.648,32.08 C332.648,32.32 332.696,32.464 332.792,32.512 C332.888,32.56 333.032,32.608 333.272,32.608 L334.136,32.608 C334.472,32.608 334.856,32.608 335.192,32.656 C335.528,32.704 335.864,32.704 336.2,32.704 C336.824,32.704 337.4,32.704 337.976,32.656 C338.552,32.608 339.128,32.608 339.752,32.608 C339.992,32.608 340.232,32.608 340.472,32.656 C340.712,32.704 340.952,32.704 341.192,32.704 C341.288,32.704 341.384,32.704 341.48,32.656 C341.528,32.608 341.624,32.608 341.72,32.608 C342.056,32.608 342.44,32.656 342.776,32.752 C343.064,32.944 343.208,33.232 343.208,33.568 L343.208,34.864 C343.16,35.296 343.16,35.728 343.16,36.16 L343.16,36.736 C343.16,36.88 343.304,36.976 343.544,37.024 C343.784,37.072 344.12,37.12 344.456,37.168 C344.792,37.216 345.08,37.216 345.416,37.216 L345.992,37.216 L346.184,37.216 C346.232,37.264 346.328,37.216 346.376,37.168 C346.472,37.168 346.568,37.12 346.616,36.976 C346.664,36.832 346.712,36.688 346.76,36.544 C346.808,36.4 346.808,36.208 346.856,36.064 L346.856,35.68 C346.856,35.392 346.808,35.104 346.76,34.816 C346.712,34.576 346.664,34.288 346.664,34 C346.664,33.952 346.664,33.856 346.712,33.76 L346.712,33.568 C346.76,33.424 346.808,33.328 346.808,33.184 L346.808,33.04 C346.76,32.992 346.76,32.944 346.76,32.896 C346.808,32.752 347,32.656 347.336,32.608 C347.672,32.56 347.912,32.56 348.056,32.56 C348.2,32.56 348.296,32.56 348.392,32.608 C348.488,32.656 348.584,32.704 348.728,32.704 C348.968,32.704 349.16,32.656 349.4,32.608 C349.592,32.56 349.784,32.56 350.024,32.56 C350.84,32.56 351.656,32.56 352.472,32.608 C353.288,32.656 354.104,32.704 354.92,32.704 C355.064,32.704 355.16,32.656 355.256,32.608 C355.352,32.56 355.448,32.56 355.592,32.56 L356.744,32.56 L357.272,32.56 C357.512,32.56 357.752,32.56 357.992,32.608 C358.232,32.656 358.424,32.752 358.616,32.848 C358.76,32.944 358.856,33.088 358.856,33.28 L358.856,34.432 L358.856,34.96 C358.808,35.2 358.808,35.488 358.856,35.728 C358.856,35.968 358.904,36.208 358.952,36.448 C359,36.688 359.096,36.832 359.24,36.976 C359.288,37.024 359.432,37.072 359.672,37.12 C359.864,37.168 360.104,37.168 360.344,37.168 L361.064,37.168 L361.64,37.168 C362.168,37.168 362.456,36.928 362.456,36.448 L362.456,35.968 C362.408,35.824 362.408,35.68 362.408,35.536 C362.408,35.392 362.456,35.296 362.504,35.152 C362.552,35.056 362.6,34.96 362.6,34.816 C362.6,34.672 362.6,34.576 362.552,34.432 C362.504,34.288 362.504,34.192 362.504,34.048 C362.504,33.616 362.552,33.232 362.648,32.992 C362.696,32.752 362.984,32.608 363.512,32.608 C364.904,32.608 366.296,32.608 367.688,32.656 C369.08,32.704 370.472,32.704 371.864,32.704 L371.864,32.704 Z M372.248,50.032 C372.488,50.032 372.776,49.936 373.112,49.744 C373.4,49.552 373.688,49.312 373.976,49.024 C374.216,48.736 374.456,48.448 374.648,48.112 C374.792,47.776 374.888,47.488 374.888,47.248 C374.888,47.056 374.792,46.96 374.648,46.912 C374.312,46.768 373.928,46.672 373.592,46.576 C373.256,46.48 372.872,46.384 372.536,46.24 C372.248,46.144 371.816,46 371.288,45.76 C370.76,45.52 370.184,45.28 369.608,45.04 C369.032,44.8 368.504,44.56 367.976,44.32 C367.448,44.08 367.064,43.888 366.824,43.744 C366.536,43.552 366.248,43.408 365.96,43.312 C365.624,43.216 365.336,43.072 365,42.928 C364.136,42.544 363.272,42.112 362.456,41.632 C361.64,41.2 360.824,40.672 360.056,40.144 C359.72,39.904 359.336,39.616 359,39.376 C358.616,39.136 358.232,38.848 357.896,38.608 C357.848,38.56 357.656,38.464 357.416,38.224 C357.128,37.984 356.84,37.744 356.504,37.504 C356.168,37.264 355.928,37.024 355.688,36.784 C355.448,36.592 355.304,36.448 355.256,36.4 C355.208,36.352 355.16,36.256 355.016,36.112 C354.872,35.968 354.776,35.92 354.728,35.92 C354.632,35.872 354.488,35.824 354.296,35.824 L353.864,35.824 L353.192,35.824 C352.856,35.824 352.568,35.824 352.232,35.872 C351.896,35.92 351.608,35.968 351.32,36.016 C351.032,36.064 350.84,36.16 350.696,36.304 C350.264,36.736 349.784,37.168 349.352,37.696 C348.92,38.224 348.44,38.704 347.96,39.184 C347.432,39.712 346.952,40.144 346.424,40.576 C345.896,41.008 345.32,41.392 344.792,41.632 C344.744,41.824 344.504,42.064 344.072,42.352 C343.64,42.688 343.112,43.024 342.488,43.36 C341.864,43.696 341.192,44.08 340.472,44.416 C339.752,44.8 339.08,45.136 338.504,45.424 C337.88,45.76 337.4,46 336.968,46.192 C336.536,46.384 336.344,46.48 336.344,46.48 C335.912,46.72 335.432,46.864 335,47.008 C334.568,47.152 334.088,47.344 333.656,47.584 C333.56,47.632 333.416,47.68 333.224,47.68 C332.984,47.728 332.792,47.776 332.552,47.824 C332.312,47.872 332.12,47.968 331.976,48.064 C331.784,48.208 331.688,48.352 331.688,48.592 C331.688,48.736 331.784,48.976 331.928,49.264 C332.072,49.552 332.312,49.84 332.552,50.128 C332.792,50.416 333.032,50.656 333.272,50.848 C333.512,51.088 333.704,51.184 333.848,51.184 C333.992,51.184 334.232,51.136 334.472,51.04 C334.712,50.992 335,50.896 335.24,50.752 C335.48,50.608 335.768,50.512 336.008,50.368 C336.248,50.272 336.392,50.176 336.488,50.128 C336.728,50.128 336.968,50.08 337.208,49.936 C337.832,49.552 338.456,49.216 339.176,48.976 C339.848,48.736 340.472,48.448 341.096,48.016 C341.24,47.872 341.432,47.776 341.624,47.632 C341.768,47.488 341.96,47.392 342.152,47.344 C342.296,47.248 342.584,47.104 343.016,46.912 C343.4,46.72 343.64,46.528 343.736,46.384 C346.568,44.752 349.16,42.736 351.512,40.288 C351.656,40.192 351.848,39.952 352.184,39.616 C352.472,39.28 352.664,39.088 352.76,39.04 C353.192,39.28 353.624,39.616 354.056,39.952 C354.44,40.336 354.824,40.672 355.16,41.008 C355.448,41.248 355.736,41.488 356.072,41.632 C356.408,41.824 356.696,42.064 356.984,42.304 C357.704,42.832 358.376,43.36 359.096,43.792 C359.192,43.84 359.384,43.984 359.72,44.176 C360.008,44.416 360.2,44.56 360.344,44.608 C360.872,44.848 361.4,45.088 361.88,45.376 C362.312,45.712 362.792,46 363.32,46.24 C363.704,46.384 364.088,46.576 364.472,46.72 C364.856,46.912 365.24,47.104 365.576,47.344 C365.864,47.488 366.152,47.632 366.44,47.728 C366.728,47.872 367.016,48.016 367.304,48.16 C367.544,48.304 367.832,48.4 368.072,48.448 C368.312,48.496 368.6,48.64 368.84,48.784 C368.936,48.832 369.176,48.928 369.512,49.072 C369.848,49.216 370.184,49.312 370.568,49.456 C370.952,49.6 371.336,49.744 371.672,49.84 C372.008,49.984 372.2,50.032 372.248,50.032 L372.248,50.032 Z M369.176,64.336 C369.512,64.336 369.8,64.288 370.04,64.144 C370.184,64.096 370.376,63.952 370.616,63.808 C370.856,63.664 371.096,63.472 371.336,63.28 C371.576,63.088 371.768,62.896 371.96,62.704 C372.152,62.512 372.248,62.368 372.248,62.224 C372.104,61.984 371.768,61.648 371.288,61.312 C370.808,60.976 370.424,60.688 370.184,60.448 C370.04,60.352 369.8,60.16 369.368,59.824 C368.936,59.488 368.408,59.152 367.832,58.72 C367.208,58.288 366.584,57.856 365.96,57.424 C365.336,56.992 364.712,56.56 364.184,56.176 C363.608,55.792 363.128,55.456 362.744,55.216 C362.36,54.976 362.12,54.88 362.072,54.88 C361.928,54.88 361.688,54.928 361.448,55.072 C361.208,55.216 360.968,55.408 360.728,55.6 C360.488,55.84 360.248,56.032 360.104,56.272 C359.912,56.512 359.816,56.704 359.816,56.848 C359.816,57.136 359.912,57.376 360.056,57.52 C360.776,58.144 361.544,58.72 362.408,59.152 C363.224,59.632 363.944,60.256 364.568,60.976 C364.712,61.12 364.808,61.216 364.904,61.168 C364.952,61.12 365.048,61.168 365.144,61.312 C365.24,61.456 365.432,61.648 365.768,61.936 C366.056,62.224 366.392,62.512 366.728,62.8 C367.064,63.136 367.352,63.424 367.688,63.664 C367.976,63.904 368.216,64.096 368.36,64.144 C368.696,64.288 368.936,64.336 369.176,64.336 L369.176,64.336 Z M366.824,53.536 L367.304,53.536 C367.544,53.536 367.784,53.488 368.024,53.44 C368.264,53.392 368.456,53.344 368.648,53.296 C368.792,53.248 368.888,53.104 368.888,52.96 L368.888,52.48 C368.888,52.336 368.888,52.144 368.936,52 C368.984,51.856 368.984,51.664 368.984,51.52 L368.984,51.088 C368.984,50.752 368.936,50.512 368.792,50.368 C368.648,50.224 368.504,50.128 368.264,50.08 C368.024,50.032 367.784,50.032 367.544,50.032 C367.304,50.08 367.064,50.08 366.824,50.08 C366.344,50.08 365.864,50.128 365.432,50.176 C364.952,50.224 364.472,50.272 363.992,50.272 C363.848,50.272 363.704,50.272 363.56,50.224 C363.416,50.176 363.224,50.176 363.08,50.176 C362.936,50.176 362.84,50.176 362.696,50.224 C362.552,50.272 362.456,50.272 362.312,50.272 C361.88,50.272 361.448,50.224 361.016,50.176 C360.584,50.128 360.104,50.08 359.672,50.08 C359.528,50.08 359.384,50.08 359.24,50.128 C359.096,50.176 358.904,50.224 358.76,50.224 C358.424,50.224 358.088,50.176 357.8,50.128 C357.464,50.08 357.128,50.08 356.792,50.08 C356.552,50.08 356.264,50.08 356.024,50.128 C355.784,50.176 355.496,50.224 355.256,50.224 C354.824,50.224 354.632,49.984 354.632,49.552 L354.632,46 C354.632,45.856 354.68,45.76 354.728,45.664 C354.776,45.616 354.776,45.52 354.776,45.376 C354.776,44.848 354.632,44.608 354.344,44.608 L353.192,44.608 L351.512,44.608 C351.368,44.656 351.224,44.704 351.176,44.704 C351.08,44.752 350.984,44.848 350.936,44.992 L350.936,45.184 C350.888,45.232 350.888,45.328 350.888,45.376 C350.888,45.616 350.936,45.808 350.984,46 C351.032,46.24 351.032,46.48 351.032,46.72 C351.032,46.96 351.032,47.2 350.984,47.44 C350.936,47.68 350.936,47.968 350.936,48.208 L350.936,49.264 C350.936,49.504 350.84,49.648 350.648,49.792 C350.408,49.936 350.168,50.032 349.928,50.08 C349.64,50.128 349.352,50.176 349.112,50.176 C348.824,50.224 348.584,50.224 348.44,50.224 L347.48,50.224 C347.144,50.224 346.856,50.224 346.52,50.176 C346.376,50.128 346.184,50.128 346.04,50.08 L345.56,50.08 C345.224,50.08 344.888,50.08 344.552,50.128 C344.216,50.176 343.88,50.224 343.544,50.224 C343.4,50.224 343.256,50.224 343.112,50.176 C342.968,50.128 342.824,50.128 342.68,50.128 L342.536,50.128 C342.488,50.176 342.392,50.176 342.344,50.176 C342.248,50.224 342.152,50.224 342.008,50.224 C341.864,50.224 341.768,50.176 341.672,50.128 C341.528,50.08 341.432,50.08 341.288,50.08 L337.832,50.08 C337.496,50.08 337.256,50.176 337.16,50.368 C337.016,50.56 336.968,50.8 336.968,51.136 C336.968,51.952 337.064,52.576 337.304,52.912 C337.496,53.248 338.024,53.44 338.936,53.44 L339.8,53.44 C340.04,53.488 340.328,53.488 340.616,53.488 C340.856,53.488 341.048,53.488 341.288,53.44 C341.48,53.392 341.672,53.392 341.912,53.392 L345.656,53.392 C345.896,53.392 346.136,53.392 346.376,53.44 C346.568,53.488 346.76,53.488 347,53.488 C347.096,53.488 347.192,53.488 347.288,53.44 C347.384,53.392 347.48,53.392 347.576,53.392 L348.776,53.392 C349.208,53.44 349.592,53.488 349.928,53.632 C350.264,53.776 350.504,53.968 350.744,54.208 C350.936,54.496 351.032,54.88 351.032,55.408 L351.032,58.048 C351.032,58.48 351.032,58.96 350.984,59.392 C350.936,59.872 350.888,60.352 350.888,60.784 L350.888,65.728 C350.888,66.16 350.888,66.544 350.936,66.784 C350.984,67.024 351.032,67.168 351.176,67.312 C351.32,67.408 351.512,67.456 351.752,67.504 L352.808,67.504 L353.24,67.504 L353.864,67.504 C354.056,67.456 354.248,67.408 354.392,67.36 C354.536,67.312 354.632,67.168 354.632,67.024 L354.632,60.352 C354.632,60.208 354.68,60.112 354.728,59.968 C354.776,59.872 354.776,59.776 354.776,59.632 C354.776,59.296 354.776,58.96 354.728,58.624 C354.68,58.288 354.632,57.952 354.632,57.616 C354.632,57.28 354.68,56.896 354.728,56.512 C354.776,56.176 354.776,55.792 354.776,55.456 C354.776,55.216 354.776,54.976 354.728,54.736 C354.68,54.496 354.632,54.256 354.632,54.016 C354.632,53.92 354.632,53.776 354.68,53.632 C354.68,53.488 354.728,53.44 354.872,53.44 L355.064,53.44 C355.208,53.488 355.4,53.488 355.544,53.44 C355.688,53.392 355.832,53.344 355.976,53.344 L356.36,53.344 C356.408,53.392 356.648,53.392 357.032,53.44 C357.416,53.488 357.656,53.488 357.752,53.488 C358.52,53.488 359.288,53.488 360.104,53.44 C360.872,53.392 361.64,53.392 362.408,53.392 C363.128,53.392 363.896,53.392 364.616,53.44 C365.336,53.488 366.104,53.536 366.824,53.536 L366.824,53.536 Z M333.464,51.376 L333.848,51.376 L333.464,50.992 L333.464,51.376 Z M334.04,63.088 L333.992,63.136 L333.944,63.232 C333.944,63.376 334.088,63.616 334.328,63.856 C334.568,64.096 334.856,64.384 335.192,64.672 C335.528,64.912 335.816,65.152 336.152,65.344 C336.44,65.536 336.68,65.632 336.824,65.632 C336.968,65.632 337.256,65.488 337.688,65.248 C338.12,64.96 338.6,64.624 339.128,64.288 C339.656,63.904 340.136,63.52 340.568,63.184 C341,62.848 341.336,62.656 341.48,62.512 C341.624,62.368 341.768,62.224 341.816,62.08 C341.96,62.032 342.104,61.936 342.296,61.792 C342.44,61.696 342.584,61.6 342.632,61.504 C342.728,61.456 342.824,61.36 342.872,61.264 C342.92,61.168 342.968,61.072 343.016,61.024 C343.112,60.976 343.256,60.832 343.496,60.592 C343.736,60.4 343.88,60.304 343.976,60.256 C344.12,60.112 344.216,59.968 344.312,59.824 C344.408,59.68 344.504,59.584 344.648,59.44 C344.696,59.392 344.84,59.248 345.032,59.056 C345.224,58.864 345.416,58.672 345.608,58.432 C345.8,58.24 345.992,58.048 346.136,57.808 C346.28,57.616 346.376,57.472 346.376,57.376 C346.376,57.232 346.232,57.04 345.992,56.8 C345.752,56.56 345.464,56.368 345.128,56.176 C344.792,55.984 344.456,55.792 344.12,55.648 C343.784,55.504 343.544,55.456 343.4,55.456 C343.352,55.456 343.256,55.504 343.208,55.552 C343.064,55.696 342.92,55.888 342.824,56.08 C342.68,56.272 342.536,56.464 342.392,56.608 C342.248,56.8 342.056,56.992 341.912,57.136 C341.768,57.328 341.576,57.52 341.432,57.712 C340.904,58.24 340.328,58.672 339.752,59.104 C339.176,59.536 338.6,59.968 338.072,60.4 C337.64,60.736 337.256,61.024 336.872,61.264 C336.536,61.456 336.248,61.648 335.96,61.84 C335.672,62.032 335.384,62.224 335.096,62.416 C334.904,62.56 334.712,62.656 334.52,62.704 C334.328,62.8 334.136,62.944 333.992,63.088 L334.04,63.088 Z M382.184,64.864 L384.392,64.864 C385.064,64.864 385.448,64.72 385.592,64.432 C385.736,64.096 385.784,63.664 385.784,63.088 C385.784,62.752 385.784,62.464 385.736,62.128 C385.688,61.84 385.688,61.552 385.688,61.216 L385.688,60.88 C385.688,60.784 385.592,60.688 385.448,60.64 C385.304,60.592 385.112,60.544 384.872,60.496 C384.632,60.448 384.44,60.448 384.248,60.4 L383.816,60.4 L383,60.4 C382.76,60.4 382.568,60.4 382.328,60.448 C382.088,60.496 381.896,60.496 381.656,60.496 C381.608,60.496 381.56,60.496 381.512,60.448 L381.368,60.448 C381.272,60.448 381.176,60.544 381.128,60.688 C381.08,60.832 381.032,61.024 381.032,61.264 C380.984,61.504 380.984,61.696 380.984,61.936 L380.984,62.368 L380.984,63.184 C380.984,63.424 381.032,63.664 381.08,63.904 C381.128,64.192 381.176,64.432 381.176,64.672 C381.176,64.768 381.32,64.816 381.656,64.864 L382.184,64.864 L382.184,64.864 Z M411.656,38.848 C411.656,38.608 411.608,38.32 411.56,38.08 C411.512,37.84 411.464,37.6 411.464,37.36 C411.464,37.264 411.464,37.168 411.512,37.072 L411.512,36.88 C411.512,36.784 411.464,36.688 411.32,36.64 C411.176,36.592 410.984,36.544 410.792,36.496 L410.168,36.496 L409.784,36.496 L408.92,36.496 C408.776,36.496 408.68,36.496 408.584,36.448 L408.2,36.448 C407.816,36.448 407.432,36.496 407.048,36.544 C406.616,36.592 406.232,36.64 405.848,36.64 C405.608,36.64 405.416,36.592 405.176,36.544 C404.936,36.496 404.744,36.448 404.504,36.448 L403.88,36.448 C403.64,36.448 403.448,36.496 403.208,36.544 C403.112,36.592 403.016,36.592 402.92,36.64 C402.824,36.688 402.728,36.688 402.584,36.688 C402.44,36.688 402.344,36.64 402.248,36.592 C402.104,36.544 402.008,36.544 401.864,36.544 L401.24,36.544 C401,36.592 400.808,36.592 400.616,36.64 C400.376,36.688 400.04,36.688 399.512,36.736 C398.984,36.784 398.6,36.832 398.36,36.88 C397.832,37.024 397.352,37.216 396.824,37.36 C396.296,37.552 395.864,37.84 395.48,38.224 C395.24,38.464 395,38.752 394.76,39.088 C394.52,39.424 394.28,39.712 394.04,40 C393.656,40.432 393.368,40.96 393.224,41.488 C393.032,42.064 392.888,42.64 392.84,43.216 C392.792,43.408 392.792,43.6 392.792,43.744 C392.792,43.936 392.792,44.128 392.744,44.32 C392.696,44.464 392.696,44.656 392.648,44.8 C392.6,44.992 392.6,45.184 392.6,45.376 C392.6,45.616 392.648,45.856 392.696,46.048 C392.744,46.24 392.792,46.48 392.792,46.72 C392.792,47.248 392.792,47.728 392.744,48.208 C392.696,48.736 392.648,49.216 392.648,49.744 L392.648,50.416 C392.648,50.656 392.648,50.848 392.696,51.088 C392.744,51.328 392.792,51.568 392.84,51.76 C392.888,52 392.888,52.24 392.888,52.48 C392.888,52.624 392.84,52.816 392.792,52.96 C392.744,53.104 392.696,53.296 392.696,53.44 C392.696,53.872 392.744,54.352 392.792,54.784 C392.84,55.264 392.888,55.744 392.888,56.176 C392.888,56.32 392.84,56.416 392.792,56.56 L392.792,56.752 C392.744,56.848 392.744,56.944 392.744,56.992 C392.744,57.232 392.744,57.472 392.792,57.712 C392.84,57.952 392.84,58.24 392.888,58.48 C392.936,58.72 392.936,58.912 392.984,59.104 C392.984,59.344 393.032,59.536 393.08,59.776 C393.32,60.688 393.752,61.456 394.376,62.128 C394.952,62.8 395.672,63.28 396.536,63.568 C396.824,63.664 397.112,63.76 397.352,63.904 C397.592,64.048 397.88,64.144 398.312,64.192 C398.696,64.24 398.984,64.24 399.224,64.288 C399.56,64.336 399.848,64.432 400.136,64.528 C400.376,64.576 400.664,64.624 401,64.672 C401.576,64.72 402.152,64.72 402.776,64.768 C403.352,64.816 403.928,64.816 404.504,64.816 L405.032,64.816 C405.224,64.768 405.416,64.768 405.56,64.768 C405.896,64.768 406.184,64.816 406.52,64.864 C406.808,64.912 407.096,64.912 407.432,64.912 C407.864,64.912 408.344,64.864 408.824,64.816 C409.304,64.768 409.784,64.72 410.216,64.72 C410.408,64.72 410.552,64.72 410.6,64.768 L411.128,64.768 C411.368,64.768 411.56,64.672 411.608,64.432 C411.656,64.192 411.656,64 411.656,63.808 L411.656,63.232 C411.608,62.992 411.608,62.704 411.56,62.416 C411.512,62.176 411.416,61.936 411.368,61.696 C411.272,61.504 411.176,61.408 411.032,61.36 C410.888,61.312 410.696,61.312 410.456,61.312 C410.024,61.312 409.64,61.312 409.208,61.36 C408.776,61.408 408.392,61.456 407.96,61.456 C407.816,61.456 407.672,61.408 407.576,61.36 C407.48,61.312 407.336,61.312 407.192,61.312 C406.952,61.312 406.712,61.312 406.472,61.36 C406.232,61.408 405.944,61.408 405.704,61.408 C405.56,61.408 405.368,61.408 405.224,61.36 C405.032,61.36 404.84,61.36 404.696,61.312 C404.36,61.264 404.024,61.216 403.688,61.216 C403.352,61.264 402.968,61.264 402.632,61.264 L401,61.264 C400.472,61.312 399.896,61.216 399.368,61.072 C398.696,60.928 398.168,60.592 397.832,60.16 C397.496,59.728 397.208,59.248 397.064,58.672 C396.872,58.144 396.776,57.52 396.776,56.896 C396.728,56.272 396.728,55.696 396.728,55.168 C396.728,54.832 396.728,54.448 396.776,54.112 L396.776,53.056 C396.776,52.816 396.776,52.576 396.728,52.336 C396.68,52.096 396.68,51.856 396.68,51.616 C396.68,51.28 396.728,50.992 396.776,50.656 C396.824,50.368 396.872,50.08 396.872,49.744 C396.872,49.408 396.872,49.072 396.824,48.736 C396.776,48.4 396.728,48.064 396.728,47.728 C396.728,47.488 396.728,47.248 396.776,47.008 L396.776,46.288 C396.776,46.048 396.776,45.76 396.728,45.472 C396.68,45.232 396.632,44.944 396.632,44.704 C396.632,44.56 396.68,44.368 396.728,44.032 C396.776,43.744 396.872,43.408 396.968,43.072 C397.064,42.736 397.16,42.448 397.304,42.112 C397.4,41.824 397.496,41.632 397.544,41.488 C397.688,41.2 397.928,40.96 398.168,40.816 C398.408,40.672 398.696,40.528 398.984,40.384 C399.128,40.336 399.368,40.24 399.608,40.096 C399.848,40 400.088,39.952 400.232,39.952 L400.376,39.952 C400.424,40 400.472,40 400.52,40 C400.856,40 401.288,39.952 401.72,39.808 C402.152,39.712 402.584,39.664 403.016,39.664 C403.256,39.664 403.448,39.712 403.688,39.76 C403.88,39.808 404.072,39.856 404.264,39.856 C404.504,39.856 404.792,39.808 405.08,39.76 C405.32,39.712 405.608,39.712 405.848,39.712 C406.616,39.712 407.384,39.76 408.152,39.856 C408.92,39.952 409.688,40 410.456,40 C411.032,40 411.368,39.952 411.512,39.856 C411.608,39.808 411.656,39.472 411.656,38.848 L411.656,38.848 Z M421.208,52.576 L421.208,49.408 C421.208,49.072 421.256,48.736 421.304,48.4 C421.352,48.112 421.352,47.776 421.352,47.44 C421.352,47.2 421.352,47.008 421.304,46.768 C421.256,46.576 421.208,46.384 421.208,46.24 C421.208,46.048 421.208,45.76 421.256,45.328 C421.256,44.896 421.304,44.464 421.352,43.984 C421.4,43.552 421.448,43.12 421.544,42.736 C421.592,42.352 421.688,42.112 421.784,41.968 C422.12,41.488 422.456,41.104 422.744,40.816 C423.032,40.576 423.464,40.384 424.088,40.288 C424.376,40.24 424.664,40.192 424.952,40.144 C425.24,40.144 425.528,40.096 425.816,40.048 C426.008,40 426.2,39.952 426.44,39.904 C426.68,39.856 426.872,39.856 427.064,39.856 C427.208,39.856 427.304,39.856 427.448,39.904 C427.544,39.952 427.64,39.952 427.784,39.952 C428.12,39.952 428.456,39.952 428.792,39.904 C429.128,39.856 429.416,39.904 429.752,39.952 C429.992,40 430.232,40.048 430.472,40.096 C430.712,40.144 430.952,40.192 431.192,40.192 C431.624,40.192 432.104,40.24 432.632,40.336 C433.16,40.432 433.592,40.624 433.976,40.912 C434.216,41.104 434.456,41.44 434.648,41.968 C434.792,42.496 434.936,43.072 435.032,43.696 C435.128,44.32 435.176,44.944 435.224,45.568 C435.272,46.192 435.272,46.624 435.272,46.96 C435.272,47.296 435.224,47.584 435.176,47.824 C435.128,48.112 435.08,48.4 435.08,48.736 C435.08,49.168 435.128,49.6 435.176,49.984 C435.224,50.368 435.272,50.752 435.272,51.136 C435.272,51.28 435.272,51.472 435.224,51.616 C435.176,51.76 435.176,51.952 435.176,52.096 C435.176,52.336 435.176,52.528 435.224,52.768 L435.224,53.44 C435.224,53.872 435.176,54.256 435.128,54.688 C435.08,55.12 435.032,55.504 435.032,55.936 C435.032,56.224 435.08,56.512 435.128,56.752 C435.176,57.04 435.176,57.328 435.176,57.616 C435.176,58.144 435.08,58.624 434.936,58.96 C434.792,59.296 434.552,59.68 434.216,60.112 C433.928,60.496 433.592,60.736 433.256,60.832 C432.92,60.976 432.584,61.024 432.248,61.024 C431.912,61.072 431.576,61.072 431.288,61.024 C431,61.024 430.76,61.12 430.568,61.264 C430.184,61.36 429.896,61.408 429.704,61.456 C429.464,61.504 429.128,61.504 428.696,61.504 C428.264,61.504 427.832,61.456 427.448,61.36 C427.064,61.312 426.632,61.264 426.2,61.264 C425.576,61.264 425.048,61.216 424.616,61.072 C424.184,60.976 423.656,60.736 423.128,60.4 C422.984,60.352 422.84,60.256 422.648,60.16 C422.456,60.064 422.312,59.968 422.264,59.872 C422.12,59.728 422.024,59.44 421.88,59.056 C421.736,58.672 421.592,58.384 421.544,58.144 C421.496,57.904 421.4,57.664 421.304,57.376 C421.208,57.088 421.16,56.8 421.16,56.56 C421.16,56.128 421.208,55.696 421.256,55.264 C421.304,54.88 421.352,54.496 421.352,54.064 C421.352,53.824 421.352,53.536 421.304,53.296 C421.256,53.056 421.208,52.816 421.208,52.576 L421.208,52.576 Z M439.352,47.248 L439.352,46.768 L439.352,46 L439.352,45.28 C439.352,45.04 439.352,44.944 439.304,44.896 L439.304,44.416 C439.256,44.176 439.256,43.936 439.256,43.696 C439.208,43.456 439.208,43.264 439.208,43.024 C439.16,42.784 439.16,42.64 439.112,42.496 C439.064,42.256 438.968,42.016 438.872,41.68 C438.728,41.392 438.632,41.104 438.488,40.768 C438.344,40.432 438.152,40.144 438.008,39.856 C437.816,39.616 437.672,39.376 437.528,39.232 C437.144,38.848 436.712,38.512 436.232,38.272 C435.896,38.08 435.56,37.888 435.224,37.648 C434.888,37.456 434.552,37.312 434.216,37.168 C433.88,37.024 433.592,36.976 433.256,37.024 C432.92,37.072 432.632,37.024 432.296,36.88 C432.056,36.784 431.816,36.688 431.576,36.64 C431.336,36.592 431.096,36.544 430.856,36.544 C430.568,36.544 430.28,36.544 429.992,36.592 C429.704,36.64 429.416,36.64 429.128,36.64 C428.888,36.64 428.696,36.592 428.504,36.544 C428.264,36.496 428.072,36.448 427.832,36.448 C427.4,36.448 427.016,36.496 426.728,36.544 C426.392,36.64 426.056,36.688 425.72,36.688 C425.48,36.688 425.24,36.688 425.048,36.64 C424.856,36.64 424.616,36.64 424.376,36.688 C424.136,36.736 423.896,36.784 423.56,36.832 C423.224,36.88 422.888,36.976 422.552,37.072 C422.216,37.168 421.88,37.264 421.592,37.408 C421.256,37.552 421.016,37.648 420.824,37.744 C420.68,37.792 420.584,37.888 420.488,37.936 C420.392,38.032 420.296,38.128 420.152,38.176 C420.056,38.176 419.912,38.272 419.768,38.416 C419.528,38.608 419.288,38.848 419,39.136 C418.712,39.472 418.472,39.808 418.232,40.144 C417.992,40.48 417.752,40.864 417.608,41.2 C417.416,41.584 417.32,41.92 417.32,42.256 C417.272,42.304 417.272,42.4 417.272,42.496 L417.272,42.784 C417.272,43.168 417.272,43.552 417.32,43.936 C417.368,44.32 417.368,44.704 417.368,45.088 L417.368,46 C417.368,46.144 417.368,46.288 417.32,46.432 C417.272,46.576 417.224,46.768 417.224,46.912 C417.224,47.152 417.224,47.344 417.272,47.536 L417.272,48.16 C417.272,48.592 417.224,49.072 417.128,49.504 C417.032,49.984 416.984,50.464 416.984,50.896 C416.984,51.328 417.032,51.808 417.176,52.24 C417.272,52.72 417.32,53.2 417.32,53.68 C417.32,53.824 417.32,53.968 417.272,54.112 C417.224,54.256 417.176,54.4 417.176,54.544 C417.176,54.784 417.224,55.024 417.272,55.216 C417.32,55.456 417.368,55.648 417.368,55.888 C417.368,56.032 417.32,56.176 417.272,56.32 C417.176,56.464 417.128,56.656 417.128,56.8 C417.128,58 417.368,59.104 417.848,60.112 C418.28,61.12 418.952,62.08 419.768,62.896 C420.152,63.04 420.536,63.184 420.872,63.376 C421.208,63.616 421.544,63.808 421.88,63.952 C422.408,64.192 422.888,64.288 423.416,64.336 C423.944,64.336 424.472,64.384 425,64.48 C425.192,64.528 425.384,64.624 425.624,64.672 C425.864,64.72 426.056,64.768 426.2,64.768 L426.296,64.768 C426.296,64.72 426.296,64.72 426.344,64.72 L426.584,64.72 C426.632,64.672 426.68,64.672 426.776,64.672 C427.016,64.672 427.256,64.72 427.496,64.768 C427.688,64.816 427.928,64.864 428.168,64.864 L429.08,64.864 C429.32,64.816 429.608,64.816 429.944,64.768 C430.568,64.72 431.096,64.72 431.432,64.72 C431.768,64.672 432.104,64.672 432.392,64.624 C432.632,64.576 432.92,64.48 433.256,64.384 C433.592,64.24 434.024,64.048 434.6,63.808 C434.936,63.664 435.32,63.52 435.656,63.472 C435.992,63.424 436.28,63.28 436.616,62.992 C436.76,62.848 436.952,62.656 437.144,62.464 C437.288,62.272 437.48,62.08 437.624,61.936 C437.72,61.792 437.816,61.6 437.96,61.36 C438.2,60.928 438.392,60.496 438.536,60.16 C438.68,59.824 438.824,59.44 438.92,59.104 C439.016,58.768 439.112,58.384 439.16,58 C439.208,57.616 439.208,57.184 439.208,56.656 C439.208,56.32 439.208,55.936 439.16,55.6 C439.112,55.264 439.112,54.928 439.112,54.592 C439.112,54.256 439.16,53.92 439.208,53.584 C439.256,53.296 439.304,53.008 439.304,52.672 C439.304,52.24 439.304,51.856 439.256,51.472 C439.208,51.088 439.16,50.704 439.16,50.272 C439.16,50.128 439.208,49.984 439.256,49.84 C439.304,49.744 439.304,49.648 439.304,49.504 C439.304,49.36 439.304,49.216 439.256,49.168 C439.256,48.832 439.256,48.496 439.304,48.16 C439.352,47.872 439.352,47.584 439.352,47.248 L439.352,47.248 Z M473.096,36.592 C472.28,36.592 471.512,36.736 470.84,37.072 C470.168,37.408 469.496,37.792 468.776,38.224 C468.632,38.272 468.488,38.368 468.344,38.512 C468.2,38.656 468.056,38.752 467.912,38.8 C467.864,38.848 467.816,38.896 467.768,38.896 C467.72,38.944 467.624,38.944 467.576,38.992 C467.432,39.04 467.24,39.184 467,39.424 C466.76,39.664 466.616,39.808 466.52,39.952 C466.472,40 466.376,40.096 466.328,40.144 C466.232,40.24 466.136,40.288 466.04,40.288 C465.896,40.288 465.752,40.192 465.608,39.952 C465.416,39.76 465.224,39.52 464.984,39.28 C464.744,39.04 464.552,38.752 464.36,38.464 C464.12,38.224 463.928,38.032 463.784,37.888 C463.16,37.36 462.344,36.928 461.336,36.592 C460.328,36.304 459.464,36.16 458.648,36.16 C458.504,36.16 458.264,36.16 458.024,36.208 C457.784,36.256 457.496,36.352 457.208,36.4 C456.92,36.496 456.632,36.592 456.392,36.64 C456.104,36.736 455.864,36.784 455.72,36.832 C455.48,36.88 455.24,37.024 455,37.168 C454.76,37.312 454.472,37.504 454.232,37.648 C454.184,37.696 454.088,37.744 453.992,37.744 C453.752,37.792 453.56,37.84 453.32,37.984 C453.08,38.128 452.84,38.224 452.648,38.32 C452.6,38.368 452.408,38.464 452.072,38.608 C451.736,38.8 451.592,38.944 451.592,38.992 L451.592,39.04 C451.544,39.184 451.352,39.376 451.064,39.616 C450.776,39.904 450.584,40.048 450.44,40.048 L450.392,40.048 C450.344,40.048 450.296,39.952 450.248,39.808 C450.2,39.664 450.152,39.568 450.152,39.52 C450.104,39.472 450.104,39.376 450.104,39.28 C450.104,39.136 450.104,39.04 450.152,38.992 C450.152,38.848 450.152,38.752 450.2,38.608 L450.2,38.224 C450.2,37.696 450.056,37.408 449.816,37.312 C449.576,37.264 449.288,37.12 448.952,36.976 L448.616,36.976 C448.472,36.976 448.376,36.976 448.328,37.024 C448.232,37.072 448.136,37.072 447.992,37.072 C447.608,37.072 447.32,37.072 447.128,37.024 C446.936,37.024 446.84,37.264 446.84,37.696 L446.84,39.28 C446.84,39.76 446.792,40.24 446.744,40.672 C446.696,41.152 446.648,41.632 446.648,42.112 C446.648,42.352 446.648,42.64 446.696,42.928 C446.744,43.216 446.744,43.504 446.744,43.744 C446.744,43.888 446.744,44.032 446.696,44.128 C446.648,44.272 446.648,44.416 446.648,44.56 C446.648,44.704 446.648,44.896 446.696,45.04 C446.744,45.232 446.744,45.424 446.744,45.568 L446.744,47.008 C446.744,47.344 446.744,47.632 446.696,47.92 C446.648,48.256 446.6,48.544 446.6,48.88 C446.6,49.408 446.648,49.888 446.744,50.368 C446.84,50.896 446.888,51.376 446.888,51.904 C446.888,52 446.888,52.096 446.84,52.192 C446.792,52.336 446.744,52.432 446.744,52.576 C446.744,53.056 446.744,53.536 446.792,54.016 C446.84,54.544 446.84,55.024 446.84,55.504 C446.84,55.648 446.84,55.792 446.792,55.84 L446.792,55.984 C446.744,56.032 446.744,56.128 446.744,56.176 L446.744,59.488 C446.744,59.728 446.744,59.92 446.792,60.112 C446.84,60.304 446.84,60.496 446.84,60.736 C446.84,61.072 446.792,61.36 446.744,61.648 C446.696,61.984 446.648,62.368 446.648,62.8 C446.648,63.328 446.696,63.808 446.84,64.288 C446.936,64.72 447.32,64.912 447.992,64.912 C448.424,64.912 448.808,64.864 449.24,64.816 C449.624,64.72 450.056,64.672 450.488,64.672 C450.632,64.672 450.68,64.624 450.728,64.576 L450.728,64.192 C450.68,64.144 450.68,63.952 450.68,63.616 C450.68,63.28 450.68,62.944 450.728,62.56 C450.728,62.224 450.728,61.84 450.776,61.504 L450.776,60.832 C450.776,60.736 450.776,60.64 450.728,60.544 C450.68,60.448 450.68,60.352 450.68,60.256 C450.68,59.968 450.728,59.68 450.776,59.344 C450.824,59.056 450.872,58.768 450.872,58.48 C450.872,58.336 450.872,58.24 450.824,58.192 C450.776,58.192 450.728,58.144 450.68,58 L450.68,57.52 L450.68,56.896 C450.632,56.656 450.68,56.464 450.728,56.32 C450.776,56.176 450.776,56.032 450.824,55.936 L450.824,55.552 C450.824,55.408 450.824,55.264 450.776,55.12 C450.728,55.024 450.728,54.88 450.728,54.736 L450.728,50.512 C450.728,50.368 450.776,50.176 450.824,49.984 C450.872,49.792 450.872,49.6 450.872,49.408 C450.872,49.216 450.872,49.024 450.824,48.88 C450.776,48.736 450.728,48.544 450.728,48.4 C450.728,47.872 450.728,47.392 450.68,46.912 C450.632,46.432 450.632,45.952 450.632,45.424 C450.632,45.136 450.632,44.848 450.68,44.56 C450.728,44.272 450.776,43.984 450.92,43.744 C451.064,43.408 451.352,43.024 451.736,42.64 C452.12,42.304 452.552,41.968 452.984,41.632 C453.416,41.296 453.896,41.008 454.328,40.768 C454.76,40.528 455.192,40.288 455.528,40.096 C455.672,40.048 455.912,39.952 456.152,39.808 C456.392,39.664 456.632,39.616 456.776,39.616 C457.592,39.616 458.36,39.712 459.08,39.856 C459.8,40 460.52,40.336 461.192,40.768 C461.432,40.912 461.576,41.008 461.624,41.152 C461.816,41.44 462.008,41.824 462.152,42.256 C462.296,42.736 462.392,43.216 462.488,43.696 C462.584,44.224 462.632,44.704 462.68,45.184 C462.728,45.664 462.728,46.096 462.728,46.432 C462.728,46.672 462.68,46.864 462.632,47.056 C462.584,47.248 462.536,47.44 462.536,47.68 C462.536,48.064 462.536,48.448 462.584,48.784 L462.584,49.936 C462.584,50.08 462.584,50.272 462.536,50.416 C462.488,50.56 462.488,50.752 462.488,50.944 C462.488,51.472 462.536,51.952 462.584,52.432 C462.632,52.96 462.632,53.488 462.632,54.016 L462.632,55.408 C462.584,55.888 462.584,56.368 462.584,56.8 C462.632,56.848 462.632,56.992 462.68,57.136 L462.68,57.472 C462.68,57.616 462.68,57.76 462.632,57.808 C462.584,58.144 462.536,58.432 462.488,58.768 C462.44,59.104 462.44,59.44 462.44,59.776 C462.44,60.304 462.488,60.832 462.536,61.36 C462.584,61.888 462.632,62.464 462.632,62.992 L462.632,63.52 C462.584,63.712 462.584,63.904 462.584,64.048 C462.584,64.288 462.632,64.432 462.68,64.48 C462.728,64.624 462.92,64.72 463.208,64.768 L463.784,64.768 L465.32,64.768 C465.704,64.72 465.992,64.624 466.232,64.48 C466.472,64.288 466.616,64 466.712,63.664 C466.808,63.328 466.856,62.8 466.856,62.128 L466.856,60.928 C466.856,60.688 466.808,60.496 466.76,60.304 C466.664,60.112 466.616,59.872 466.616,59.632 C466.616,59.2 466.616,58.72 466.664,58.288 L466.664,56.944 C466.664,56.608 466.664,56.32 466.616,55.984 C466.568,55.648 466.568,55.36 466.568,55.024 C466.568,54.784 466.568,54.592 466.616,54.352 C466.664,54.112 466.664,53.92 466.664,53.68 L466.664,49.792 L466.664,49.312 C466.664,49.168 466.664,49.072 466.616,48.928 C466.616,48.88 466.616,48.784 466.568,48.736 C466.52,48.688 466.52,48.592 466.52,48.544 C466.52,48.208 466.568,47.968 466.664,47.776 C466.712,47.584 466.76,47.344 466.76,47.104 C466.76,46.672 466.76,46.192 466.712,45.76 C466.664,45.328 466.616,44.896 466.616,44.464 C466.616,44.32 466.616,44.128 466.664,43.984 C466.712,43.84 466.76,43.648 466.808,43.504 C466.856,43.36 467,43.168 467.24,42.928 C467.48,42.736 467.72,42.544 468.008,42.304 C468.248,42.112 468.536,41.92 468.824,41.728 C469.064,41.584 469.304,41.44 469.448,41.296 C469.592,41.2 469.688,41.152 469.832,41.104 C469.976,41.056 470.072,41.008 470.216,40.96 C470.408,40.912 470.552,40.816 470.696,40.672 C470.792,40.576 470.888,40.48 471.032,40.336 C471.176,40.24 471.32,40.144 471.464,40 C471.608,39.904 471.848,39.808 472.088,39.76 C472.232,39.712 472.376,39.664 472.616,39.616 C472.856,39.568 473,39.52 473.144,39.52 L474.776,39.52 C475.4,39.568 475.88,39.664 476.312,39.904 C476.648,40.096 476.936,40.336 477.272,40.672 C477.608,41.008 477.848,41.392 478.088,41.824 C478.328,42.256 478.52,42.688 478.664,43.12 C478.808,43.552 478.856,43.984 478.856,44.368 C478.856,44.608 478.856,44.8 478.808,44.944 C478.76,45.136 478.712,45.328 478.712,45.52 C478.664,45.616 478.664,45.76 478.664,45.952 C478.664,46.48 478.712,46.96 478.76,47.44 C478.808,47.92 478.808,48.4 478.808,48.928 C478.808,49.072 478.808,49.264 478.856,49.552 C478.856,49.84 478.808,50.032 478.76,50.128 C478.76,50.272 478.76,50.464 478.712,50.656 C478.664,50.848 478.664,51.04 478.616,51.184 C478.52,51.952 478.472,52.72 478.472,53.536 L478.472,54.352 C478.424,54.688 478.472,54.976 478.52,55.216 C478.568,55.504 478.664,55.792 478.712,56.032 C478.76,56.32 478.76,56.608 478.76,56.896 C478.76,57.088 478.712,57.28 478.664,57.424 C478.616,57.616 478.568,57.808 478.568,58 C478.568,58.528 478.568,59.008 478.52,59.488 C478.472,59.968 478.472,60.448 478.472,60.976 L478.472,61.936 C478.472,62.272 478.52,62.656 478.616,62.992 C478.664,63.376 478.712,63.76 478.712,64.096 C478.712,64.432 478.76,64.624 478.808,64.72 C478.856,64.768 479.144,64.816 479.576,64.816 C479.912,64.816 480.2,64.816 480.536,64.768 C480.872,64.72 481.16,64.72 481.496,64.72 C481.64,64.72 481.736,64.72 481.88,64.768 L482.264,64.768 C482.408,64.768 482.456,64.672 482.504,64.528 C482.552,64.336 482.552,64.192 482.552,64.096 L482.552,63.712 C482.504,63.568 482.504,63.472 482.504,63.328 C482.504,63.184 482.552,63.088 482.6,62.944 C482.648,62.848 482.696,62.752 482.696,62.608 C482.744,62.368 482.744,62.08 482.792,61.792 L482.792,60.976 C482.792,60.832 482.792,60.736 482.744,60.64 C482.696,60.592 482.648,60.496 482.648,60.352 C482.648,60.112 482.648,59.92 482.696,59.68 C482.744,59.488 482.744,59.296 482.744,59.056 C482.744,58.816 482.744,58.576 482.696,58.336 C482.648,58.144 482.6,57.904 482.6,57.664 C482.6,57.472 482.6,57.28 482.648,57.088 L482.648,56.56 C482.648,55.984 482.648,55.408 482.6,54.832 C482.552,54.304 482.552,53.728 482.552,53.152 C482.552,52.624 482.552,52.144 482.6,51.616 C482.648,51.136 482.648,50.656 482.648,50.128 L482.648,49.168 C482.6,48.88 482.6,48.592 482.6,48.256 C482.6,48.016 482.648,47.728 482.696,47.488 C482.744,47.248 482.744,47.008 482.744,46.768 C482.744,46.72 482.744,46.624 482.696,46.528 C482.648,46.48 482.648,46.384 482.648,46.336 C482.648,46 482.696,45.664 482.744,45.328 C482.792,45.04 482.792,44.704 482.792,44.368 C482.792,44.032 482.744,43.648 482.648,43.312 C482.6,43.12 482.552,42.928 482.504,42.688 C482.456,42.448 482.408,42.256 482.36,42.064 C482.216,41.344 482.024,40.72 481.832,40.288 C481.64,39.856 481.304,39.376 480.776,38.8 C480.728,38.656 480.632,38.56 480.536,38.416 C480.392,38.32 480.296,38.224 480.248,38.176 C480.104,38.032 480.008,37.888 479.864,37.744 C479.72,37.648 479.576,37.552 479.432,37.408 C479.192,37.264 478.904,37.12 478.568,36.976 C478.232,36.832 477.848,36.736 477.464,36.64 C477.08,36.544 476.696,36.448 476.36,36.4 C475.976,36.352 475.64,36.304 475.352,36.304 C474.968,36.304 474.584,36.352 474.248,36.448 C473.864,36.544 473.48,36.592 473.096,36.592 L473.096,36.592 Z" id="はっさく茶.com" fill="#FFFFFF" sketch:type="MSShapeGroup"></path>
                <g id="hassaku" sketch:type="MSShapeGroup">
                    <path d="M50,100 C77.6142375,100 100,77.6142375 100,50 C100,22.3857625 77.6142375,0 50,0 C22.3857625,0 0,22.3857625 0,50 C0,77.6142375 22.3857625,100 50,100 Z" id="Oval-1" stroke="#F7C442" stroke-width="2" fill="#FFFFFF"></path>
                    <g id="Group-3" transform="translate(6.993007, 6.993007)">
                        <ellipse id="Oval-1" fill="#F7C442" cx="43.006993" cy="43.006993" rx="42.3076923" ry="42.3076923"></ellipse>
                        <path d="M69.2992251,17.9085397 L48.0542051,39.1535591 L49.5055197,42.6573427 L79.6567069,42.6573427 L86.013986,39.1608392 L86.013986,46.8531469 L79.6567069,43.3566434 L49.5055197,43.3566434 L48.0551998,46.8580254 L69.1554563,67.958282 L76.1183513,69.9797677 L70.6790684,75.4190506 L68.6548064,68.4465927 L47.5621252,47.3539113 L44.0559441,48.806219 L44.0559441,79.6567069 L47.5524476,86.013986 L39.8601399,86.013986 L43.3566434,79.6567069 L43.3566434,48.806219 L39.8528596,47.3549043 L17.9085404,69.2992227 L15.9287934,76.1183513 L10.4895105,70.6790684 L17.6057348,68.6130678 L39.3583806,46.8604227 L37.9070677,43.3566434 L6.35727908,43.3566434 L0,46.8531469 L0,39.1608392 L6.35727908,42.6573427 L37.9070677,42.6573427 L39.3593755,39.1511615 L17.4619692,17.2537549 L10.4895105,15.2294927 L15.9287934,9.79020979 L17.9502788,16.753104 L39.8552614,38.6580869 L43.3566434,37.207767 L43.3566434,6.35727908 L39.8601399,0 L47.5524476,0 L44.0559441,6.35727908 L44.0559441,37.207767 L47.5597236,38.65908 L68.6130671,17.6057372 L70.6790684,10.4895105 L76.1183513,15.9287934 L69.2992251,17.9085397 L69.2992251,17.9085397 Z" id="Polygon-1" stroke="#FFFFFF" stroke-linecap="square" fill="#FFFFFF"></path>
                    </g>
                    <path d="M47.9087985,56.6137366 C48.4430347,56.8134793 48.0307053,67.2701851 47.2440845,69.3740984 C46.4574637,71.4780116 44.6078429,72.5508993 42.2760923,71.6790935 C39.9443417,70.8072877 39.3231564,68.5945758 40.0389138,66.6801954 C40.7546713,64.7658151 47.3745622,56.4139939 47.9087985,56.6137366 L47.9087985,56.6137366 Z" id="Triangle-4" fill="#FFFFFF"></path>
                    <path d="M44.106816,52.8880327 C44.3502817,53.5755587 33.7679153,61.7669036 31.0603209,62.7257132 C28.3527265,63.6845228 25.7813586,62.7545242 24.7187175,59.7537184 C23.6560764,56.7529126 25.3130536,54.3255787 27.7767321,53.4531444 C30.2404106,52.5807101 43.8633503,52.2005067 44.106816,52.8880327 L44.106816,52.8880327 Z" id="Triangle-4" fill="#FFFFFF"></path>
                    <g id="Group-2" transform="translate(43.849650, 36.856643) scale(-1, -1) translate(-43.849650, -36.856643) translate(38.349650, 32.356643)" fill="#FFFFFF">
                        <path d="M3.51219981,0.89110232 C3.27119686,1.09693829 5.47387077,6.47881398 6.28448782,7.4279247 C7.09510487,8.37703542 8.26484193,8.58573915 9.3167339,7.68733854 C10.3686259,6.78893793 10.2724536,5.51545241 9.53486167,4.65184318 C8.7972697,3.78823394 3.75320276,0.685266354 3.51219981,0.89110232 L3.51219981,0.89110232 Z" id="Triangle-4"></path>
                        <path d="M1.44173914,0.0501198006 C1.1282806,0.096966493 0.144294411,5.82829527 0.328784605,7.0627484 C0.513274799,8.29720152 1.39467196,9.09405853 2.76280673,8.88958942 C4.1309415,8.68512031 4.72422733,7.55417982 4.55635703,6.43093346 C4.38848674,5.3076871 1.75519768,0.00327310828 1.44173914,0.0501198006 L1.44173914,0.0501198006 Z" id="Triangle-4"></path>
                    </g>
                </g>
            </g>
        </g>
    </g>
</svg>