<?xml version="1.0" encoding="UTF-8" standalone="no"?>
<svg width="47px" height="16px" viewBox="0 0 47 16" version="1.1" xmlns="http://www.w3.org/2000/svg" xmlns:xlink="http://www.w3.org/1999/xlink" xmlns:sketch="http://www.bohemiancoding.com/sketch/ns">
    <!-- Generator: Sketch 3.5.2 (25235) - http://www.bohemiancoding.com/sketch -->
    <title>リンク</title>
    <desc>Created with Sketch.</desc>
    <defs></defs>
    <g id="Welcome" stroke="none" stroke-width="1" fill="none" fill-rule="evenodd" sketch:type="MSPage">
        <g id="colorful" sketch:type="MSArtboardGroup" transform="translate(-490.000000, -228.000000)" fill="#FFFFFF">
            <path d="M492.668,237.546 C492.668,237.492 492.65,237.438 492.596,237.366 C492.506,237.222 492.398,237.042 492.29,236.826 C492.164,236.61 492.092,236.412 492.074,236.25 C492.056,236.088 492.038,235.908 492.038,235.746 L492.038,235.26 C492.038,235.152 492.038,235.044 492.02,234.936 C492.002,234.846 491.984,234.738 491.984,234.648 C491.984,234.594 491.984,234.522 492.002,234.45 L492.002,234.252 C492.002,234.162 492.002,234.072 491.984,233.982 C491.966,233.892 491.966,233.802 491.966,233.712 C491.966,233.604 491.984,233.514 492.038,233.424 C492.074,233.334 492.092,233.244 492.092,233.136 C492.092,233.046 492.092,232.938 492.074,232.83 C492.056,232.722 492.02,232.614 492.002,232.524 C491.984,232.398 491.966,232.254 491.966,232.11 L491.966,231.696 C491.966,231.642 491.966,231.57 491.984,231.516 C492.002,231.462 492.002,231.39 492.002,231.336 L492.002,230.994 C492.002,230.886 492.02,230.778 492.038,230.67 C492.056,230.562 492.074,230.454 492.074,230.346 C492.074,230.292 492.074,230.256 492.056,230.22 C492.038,230.184 492.02,230.148 492.02,230.094 C492.002,230.076 491.948,230.04 491.876,230.022 C491.804,230.004 491.732,230.004 491.642,229.986 C491.552,229.986 491.48,229.986 491.408,229.968 L491.228,229.968 L490.76,229.968 C490.616,229.968 490.544,230.04 490.544,230.184 C490.544,230.238 490.544,230.292 490.562,230.328 C490.58,230.382 490.58,230.436 490.58,230.49 C490.58,230.652 490.562,230.814 490.544,230.976 C490.526,231.138 490.508,231.318 490.508,231.48 C490.508,231.57 490.526,231.678 490.562,231.768 C490.598,231.858 490.616,231.966 490.616,232.056 C490.616,232.182 490.616,232.29 490.598,232.398 C490.58,232.506 490.562,232.614 490.562,232.74 C490.562,232.83 490.58,232.92 490.598,232.992 C490.616,233.064 490.634,233.154 490.634,233.244 C490.634,233.37 490.616,233.496 490.598,233.604 C490.562,233.73 490.544,233.856 490.544,233.982 C490.544,234.108 490.562,234.216 490.598,234.324 C490.616,234.432 490.634,234.54 490.634,234.666 C490.634,234.9 490.634,235.134 490.616,235.368 C490.598,235.602 490.58,235.836 490.58,236.07 L490.58,236.394 C490.58,236.502 490.598,236.61 490.616,236.718 C490.634,236.826 490.688,236.952 490.76,237.078 C490.814,237.222 490.886,237.366 490.976,237.492 C491.066,237.636 491.156,237.762 491.246,237.888 C491.336,238.014 491.408,238.122 491.48,238.212 C491.516,238.266 491.57,238.32 491.624,238.356 C491.678,238.41 491.732,238.428 491.804,238.428 C491.858,238.428 491.948,238.392 492.038,238.32 C492.128,238.248 492.236,238.158 492.326,238.068 C492.416,237.978 492.506,237.87 492.578,237.78 C492.632,237.69 492.668,237.6 492.668,237.546 L492.668,237.546 Z M496.268,239.472 C496.34,239.418 496.394,239.328 496.448,239.202 C496.502,239.076 496.538,238.986 496.574,238.896 C496.592,238.842 496.628,238.77 496.682,238.698 C496.736,238.644 496.772,238.572 496.79,238.5 C496.952,238.122 497.06,237.744 497.15,237.384 C497.24,237.042 497.312,236.664 497.384,236.268 C497.402,236.214 497.402,236.142 497.42,236.07 C497.438,236.016 497.438,235.944 497.438,235.89 C497.438,235.818 497.438,235.746 497.42,235.674 C497.402,235.602 497.402,235.53 497.402,235.44 C497.402,235.35 497.42,235.278 497.438,235.206 C497.456,235.134 497.474,235.062 497.492,234.972 C497.564,234.684 497.6,234.378 497.6,234.054 C497.6,233.856 497.582,233.676 497.546,233.478 C497.492,233.28 497.474,233.1 497.474,232.902 L497.474,232.65 C497.474,232.56 497.492,232.47 497.528,232.38 C497.546,232.308 497.564,232.218 497.564,232.128 L497.564,231.714 C497.546,231.588 497.546,231.444 497.528,231.318 C497.51,231.084 497.474,230.868 497.456,230.67 C497.42,230.49 497.366,230.328 497.294,230.166 C497.222,230.004 497.132,229.86 497.024,229.716 C496.898,229.572 496.754,229.428 496.556,229.266 C496.43,229.176 496.322,229.086 496.196,229.014 C496.106,228.96 495.98,228.888 495.818,228.816 C495.656,228.762 495.53,228.726 495.422,228.726 C495.332,228.726 495.278,228.744 495.224,228.798 C495.134,228.888 495.062,229.014 494.99,229.212 C494.9,229.41 494.828,229.554 494.774,229.662 C494.756,229.68 494.738,229.716 494.702,229.77 C494.648,229.824 494.63,229.86 494.63,229.878 C494.63,229.914 494.666,229.95 494.72,229.968 C494.774,230.004 494.846,230.04 494.918,230.058 C494.99,230.076 495.062,230.112 495.134,230.13 C495.206,230.166 495.26,230.202 495.296,230.22 C495.332,230.256 495.368,230.292 495.422,230.31 C495.458,230.328 495.494,230.364 495.53,230.4 C495.728,230.58 495.872,230.76 495.944,230.922 C495.998,231.102 496.034,231.336 496.034,231.606 L496.034,231.948 C496.016,232.074 496.016,232.182 496.016,232.308 C496.016,232.38 496.034,232.452 496.052,232.506 C496.07,232.578 496.07,232.65 496.07,232.722 L496.07,233.046 C496.052,233.172 496.052,233.28 496.052,233.388 C496.052,233.424 496.052,233.46 496.07,233.478 C496.088,233.496 496.088,233.532 496.088,233.568 C496.088,233.712 496.088,233.856 496.07,233.982 C496.052,234.108 496.034,234.252 496.034,234.396 C496.034,234.576 496.034,234.756 496.052,234.918 C496.07,235.098 496.07,235.278 496.07,235.458 C496.07,235.494 496.07,235.53 496.052,235.548 C496.052,235.566 496.034,235.638 495.998,235.728 C495.962,235.818 495.944,235.89 495.926,235.908 C495.908,236.088 495.89,236.25 495.872,236.376 C495.854,236.502 495.818,236.628 495.8,236.754 L495.692,237.132 C495.638,237.258 495.584,237.42 495.53,237.582 C495.512,237.618 495.512,237.654 495.512,237.69 C495.512,237.726 495.494,237.762 495.476,237.798 L495.26,238.212 C495.206,238.338 495.152,238.428 495.134,238.482 C495.098,238.554 495.062,238.626 495.044,238.68 C495.026,238.734 494.99,238.806 494.936,238.878 C494.882,238.95 494.81,239.04 494.72,239.148 C494.666,239.202 494.648,239.274 494.63,239.328 C494.612,239.4 494.576,239.472 494.522,239.526 C494.324,239.796 494.108,240.03 493.874,240.228 C493.64,240.426 493.406,240.642 493.19,240.876 C493.1,240.966 492.992,241.038 492.884,241.092 C492.758,241.146 492.65,241.218 492.56,241.308 C492.524,241.344 492.452,241.398 492.326,241.488 C492.2,241.578 492.074,241.668 491.948,241.758 C491.822,241.848 491.696,241.92 491.57,241.974 C491.444,242.046 491.372,242.082 491.318,242.082 L491.264,242.118 C491.246,242.154 491.174,242.208 491.048,242.262 C490.922,242.316 490.796,242.388 490.67,242.46 C490.526,242.532 490.4,242.604 490.292,242.694 C490.166,242.784 490.112,242.874 490.112,242.964 C490.112,243.036 490.148,243.126 490.202,243.216 C490.256,243.306 490.328,243.414 490.418,243.522 C490.49,243.63 490.562,243.738 490.652,243.828 C490.742,243.918 490.796,243.972 490.85,244.026 C490.868,244.026 490.886,244.008 490.94,243.99 C490.994,243.954 491.048,243.918 491.102,243.882 C491.156,243.846 491.228,243.81 491.282,243.792 C491.336,243.756 491.372,243.738 491.39,243.72 C491.444,243.702 491.57,243.63 491.768,243.54 C491.948,243.45 492.146,243.342 492.344,243.234 C492.542,243.126 492.722,243.036 492.884,242.928 C493.046,242.838 493.154,242.784 493.19,242.748 L493.298,242.64 C493.316,242.604 493.352,242.568 493.388,242.532 C493.514,242.406 493.658,242.316 493.802,242.226 C493.874,242.172 493.946,242.136 494.018,242.082 C494.09,242.046 494.162,241.992 494.216,241.938 C494.342,241.848 494.45,241.74 494.54,241.632 C494.63,241.524 494.738,241.416 494.846,241.308 C494.954,241.218 495.062,241.11 495.188,241.02 C495.296,240.93 495.404,240.84 495.494,240.732 C495.548,240.678 495.602,240.606 495.62,240.534 C495.638,240.48 495.656,240.408 495.71,240.354 C495.764,240.282 495.8,240.228 495.836,240.174 C495.872,240.12 495.908,240.084 495.926,240.03 C495.944,239.994 495.98,239.958 495.998,239.904 C496.016,239.85 496.052,239.796 496.088,239.706 C496.106,239.652 496.142,239.616 496.178,239.58 C496.214,239.562 496.25,239.526 496.268,239.472 L496.268,239.472 Z M507.014,238.698 L506.762,238.698 L506.438,238.752 C506.33,238.77 506.222,238.806 506.132,238.842 C506.024,238.878 505.952,238.932 505.916,238.986 C505.898,239.004 505.88,239.04 505.88,239.076 C505.862,239.112 505.862,239.148 505.862,239.166 C505.862,239.292 505.898,239.454 505.97,239.652 C506.024,239.85 506.078,240.012 506.132,240.138 C506.15,240.156 506.168,240.21 506.186,240.3 C506.204,240.39 506.24,240.462 506.276,240.552 C506.294,240.642 506.33,240.714 506.348,240.786 C506.366,240.858 506.384,240.894 506.402,240.912 C506.42,240.93 506.456,240.966 506.492,240.984 C506.528,241.02 506.564,241.056 506.582,241.074 C506.636,241.128 506.69,241.2 506.744,241.272 C506.78,241.344 506.834,241.416 506.888,241.47 C507.014,241.596 507.158,241.704 507.302,241.776 C507.428,241.866 507.59,241.938 507.752,241.992 C507.878,242.028 508.04,242.064 508.202,242.118 C508.364,242.172 508.526,242.19 508.652,242.19 C508.85,242.19 509.03,242.172 509.228,242.154 C509.426,242.136 509.606,242.1 509.804,242.046 C510.074,241.974 510.326,241.866 510.56,241.722 C510.794,241.596 511.028,241.47 511.262,241.344 C511.316,241.326 511.352,241.29 511.406,241.272 C511.46,241.254 511.496,241.218 511.55,241.2 C511.64,241.146 511.748,241.11 511.838,241.074 C511.928,241.056 512.036,241.002 512.126,240.948 C512.27,240.858 512.414,240.786 512.558,240.696 C512.684,240.606 512.828,240.534 512.972,240.444 C513.098,240.372 513.242,240.3 513.404,240.228 C513.566,240.174 513.692,240.084 513.8,239.994 C513.926,239.868 514.07,239.742 514.196,239.616 C514.322,239.49 514.466,239.382 514.61,239.256 C514.7,239.202 514.772,239.148 514.862,239.094 C514.952,239.04 515.024,238.986 515.114,238.932 C515.222,238.842 515.33,238.752 515.42,238.662 C515.51,238.572 515.6,238.482 515.708,238.41 C515.762,238.356 515.834,238.32 515.906,238.266 C515.96,238.23 516.032,238.176 516.086,238.122 C516.302,237.906 516.518,237.69 516.734,237.456 C516.95,237.24 517.166,237.006 517.364,236.772 C517.454,236.664 517.562,236.538 517.652,236.412 C517.742,236.286 517.832,236.178 517.922,236.088 C518.048,235.962 518.156,235.836 518.246,235.746 C518.336,235.656 518.408,235.584 518.48,235.494 C518.552,235.404 518.624,235.314 518.696,235.206 C518.768,235.116 518.858,234.99 518.948,234.828 C519.038,234.684 519.164,234.54 519.326,234.396 C519.47,234.27 519.542,234.108 519.542,233.928 C519.542,233.838 519.506,233.748 519.452,233.658 C519.398,233.568 519.326,233.478 519.236,233.388 C519.146,233.298 519.056,233.244 518.966,233.19 C518.876,233.136 518.786,233.118 518.714,233.118 C518.57,233.118 518.48,233.172 518.462,233.262 C518.426,233.352 518.372,233.442 518.3,233.532 C518.282,233.568 518.246,233.604 518.21,233.622 C518.174,233.64 518.138,233.676 518.102,233.694 C518.012,233.748 517.94,233.82 517.868,233.892 C517.796,233.982 517.724,234.054 517.67,234.144 C517.634,234.18 517.598,234.252 517.544,234.342 C517.526,234.378 517.508,234.432 517.454,234.504 C517.4,234.594 517.364,234.666 517.31,234.738 C517.256,234.828 517.202,234.9 517.148,234.972 C517.094,235.044 517.04,235.098 517.022,235.116 C516.86,235.278 516.716,235.44 516.554,235.584 C516.392,235.728 516.23,235.89 516.086,236.052 C515.996,236.142 515.888,236.25 515.798,236.34 C515.708,236.448 515.6,236.556 515.492,236.646 C515.294,236.826 515.078,237.006 514.88,237.168 C514.664,237.33 514.448,237.51 514.25,237.708 C514.124,237.834 513.98,237.96 513.836,238.086 C513.674,238.212 513.53,238.32 513.368,238.446 C513.17,238.59 512.99,238.716 512.792,238.842 C512.594,238.968 512.378,239.094 512.18,239.22 L510.974,240.012 C510.884,240.066 510.776,240.138 510.686,240.192 C510.596,240.246 510.488,240.3 510.362,240.318 C510.308,240.336 510.272,240.336 510.218,240.336 C510.164,240.354 510.128,240.372 510.074,240.39 C509.876,240.444 509.678,240.534 509.48,240.642 C509.282,240.75 509.066,240.804 508.85,240.804 C508.472,240.804 508.184,240.696 508.004,240.498 C507.806,240.3 507.68,240.066 507.59,239.814 C507.5,239.58 507.446,239.346 507.428,239.112 C507.392,238.896 507.338,238.77 507.284,238.734 C507.248,238.716 507.212,238.698 507.158,238.698 L507.014,238.698 L507.014,238.698 Z M511.244,234.036 C511.244,233.982 511.208,233.928 511.136,233.838 C511.064,233.766 511.01,233.712 510.992,233.676 L510.65,233.28 C510.47,233.082 510.29,232.92 510.11,232.812 C509.93,232.704 509.75,232.56 509.588,232.398 C509.552,232.38 509.516,232.344 509.498,232.308 C509.462,232.29 509.426,232.254 509.39,232.236 C509.3,232.164 509.192,232.092 509.084,232.038 C508.976,231.984 508.868,231.912 508.76,231.858 C508.544,231.732 508.328,231.588 508.112,231.444 C507.896,231.318 507.68,231.192 507.446,231.102 C507.374,231.066 507.284,231.03 507.158,231.012 C507.032,230.994 506.888,230.976 506.762,230.958 C506.618,230.94 506.492,230.922 506.384,230.904 C506.276,230.886 506.204,230.85 506.186,230.832 L506.15,230.832 C506.096,230.832 506.042,230.868 505.988,230.94 C505.934,231.012 505.88,231.084 505.844,231.174 C505.808,231.264 505.772,231.354 505.754,231.444 C505.736,231.534 505.718,231.606 505.718,231.66 C505.718,231.768 505.736,231.858 505.79,231.912 C505.844,231.984 505.916,232.038 506.024,232.092 C506.114,232.146 506.222,232.182 506.348,232.218 C506.474,232.272 506.582,232.308 506.708,232.344 C506.816,232.38 506.906,232.416 506.996,232.452 C507.158,232.524 507.338,232.614 507.518,232.704 C507.68,232.794 507.842,232.902 507.986,233.01 C508.328,233.244 508.67,233.514 508.976,233.82 C509.282,234.126 509.606,234.432 509.912,234.72 C509.966,234.774 510.056,234.828 510.146,234.9 C510.236,234.99 510.308,235.026 510.38,235.026 C510.434,235.026 510.488,234.99 510.542,234.936 C510.596,234.882 510.668,234.81 510.722,234.72 C510.776,234.648 510.83,234.576 510.884,234.486 C510.938,234.396 510.974,234.342 511.01,234.288 C511.028,234.27 511.082,234.216 511.154,234.162 C511.208,234.108 511.244,234.054 511.244,234.036 L511.244,234.036 Z M536.75,232.506 C536.75,232.38 536.696,232.272 536.57,232.218 C536.444,232.164 536.318,232.128 536.228,232.074 C536.174,232.056 536.102,232.038 536.048,232.038 C535.976,232.038 535.904,232.02 535.832,231.984 C535.508,231.822 535.202,231.714 534.896,231.696 C534.59,231.678 534.266,231.66 533.924,231.624 C533.816,231.606 533.708,231.606 533.582,231.588 C533.456,231.57 533.348,231.57 533.24,231.57 C533.078,231.57 532.916,231.57 532.772,231.588 C532.61,231.606 532.448,231.624 532.286,231.624 C532.268,231.624 532.214,231.624 532.124,231.606 C532.034,231.606 531.926,231.606 531.836,231.588 C531.728,231.588 531.638,231.588 531.548,231.57 L531.422,231.57 C531.404,231.552 531.404,231.534 531.386,231.48 C531.368,231.426 531.368,231.39 531.368,231.372 C531.368,231.336 531.386,231.264 531.404,231.156 C531.422,231.066 531.458,230.94 531.476,230.814 C531.494,230.688 531.53,230.58 531.566,230.472 C531.584,230.382 531.602,230.31 531.62,230.274 C531.62,230.256 531.62,230.238 531.638,230.22 L531.638,230.184 C531.656,230.058 531.692,229.914 531.71,229.77 C531.728,229.626 531.728,229.482 531.728,229.338 C531.728,229.284 531.728,229.248 531.71,229.194 C531.692,229.158 531.638,229.14 531.584,229.14 C531.476,229.14 531.368,229.14 531.278,229.158 C531.17,229.176 531.062,229.176 530.954,229.176 C530.882,229.176 530.774,229.176 530.648,229.158 C530.522,229.14 530.432,229.176 530.396,229.266 C530.378,229.32 530.36,229.392 530.342,229.482 C530.324,229.572 530.324,229.644 530.306,229.698 C530.288,229.86 530.252,230.004 530.216,230.13 C530.162,230.274 530.126,230.418 530.108,230.58 C530.09,230.634 530.09,230.706 530.09,230.778 C530.072,230.85 530.054,230.922 530.036,230.976 C529.982,231.138 529.91,231.336 529.784,231.552 C529.658,231.786 529.55,231.966 529.442,232.092 C529.37,232.182 529.298,232.272 529.208,232.344 C529.118,232.434 529.046,232.524 528.974,232.614 C528.884,232.722 528.812,232.83 528.758,232.938 C528.704,233.064 528.614,233.172 528.524,233.262 C528.416,233.37 528.308,233.46 528.2,233.532 C528.074,233.622 527.966,233.712 527.858,233.802 L527.696,233.964 C527.642,234.018 527.57,234.09 527.498,234.144 C527.372,234.234 527.246,234.342 527.12,234.468 C526.994,234.594 526.868,234.702 526.742,234.81 C526.706,234.828 526.634,234.882 526.544,234.954 C526.436,235.026 526.364,235.062 526.328,235.062 C526.292,235.062 526.256,235.08 526.238,235.098 C526.004,235.26 525.77,235.404 525.536,235.494 C525.446,235.548 525.338,235.602 525.248,235.674 C525.14,235.746 525.032,235.818 524.942,235.872 C524.888,235.89 524.816,235.944 524.69,235.998 C524.564,236.052 524.456,236.124 524.33,236.196 C524.204,236.286 524.078,236.358 523.988,236.43 C523.88,236.502 523.826,236.556 523.826,236.592 C523.826,236.628 523.862,236.682 523.916,236.736 C524.006,236.808 524.096,236.88 524.15,236.97 C524.204,237.06 524.258,237.168 524.312,237.258 C524.384,237.384 524.492,237.456 524.654,237.456 C524.708,237.456 524.798,237.438 524.906,237.402 C524.996,237.384 525.104,237.348 525.212,237.294 C525.302,237.258 525.41,237.204 525.5,237.15 C525.59,237.096 525.662,237.06 525.698,237.006 C525.77,236.934 525.824,236.88 525.86,236.862 C526.022,236.772 526.202,236.664 526.418,236.574 C527.012,236.268 527.534,235.908 527.966,235.476 C528.092,235.35 528.218,235.26 528.344,235.188 C528.452,235.134 528.578,235.062 528.74,234.972 C528.902,234.882 529.1,234.72 529.298,234.504 C529.496,234.306 529.676,234.126 529.82,233.964 C529.91,233.874 529.982,233.784 530.054,233.694 C530.108,233.604 530.18,233.514 530.252,233.424 C530.342,233.334 530.432,233.208 530.522,233.064 C530.594,232.92 530.72,232.848 530.882,232.848 L531.062,232.848 C531.116,232.866 531.17,232.866 531.224,232.866 C531.296,232.866 531.368,232.866 531.458,232.848 L531.674,232.848 C531.8,232.848 531.926,232.866 532.034,232.902 C532.142,232.938 532.268,232.956 532.394,232.956 C532.52,232.956 532.646,232.938 532.772,232.902 C532.88,232.884 533.006,232.866 533.132,232.866 C533.258,232.866 533.384,232.866 533.51,232.884 C533.636,232.902 533.762,232.902 533.888,232.902 C533.942,232.902 533.996,232.902 534.068,232.884 C534.122,232.866 534.158,232.902 534.158,232.974 C534.158,233.064 534.14,233.154 534.122,233.262 C534.086,233.37 534.05,233.46 534.032,233.55 C533.996,233.712 533.942,233.91 533.852,234.162 C533.762,234.432 533.654,234.63 533.564,234.756 L533.168,235.35 C533.15,235.368 533.132,235.404 533.132,235.422 C533.132,235.458 533.132,235.494 533.114,235.512 C533.078,235.638 533.024,235.764 532.97,235.872 C532.916,235.998 532.844,236.106 532.772,236.214 C532.646,236.43 532.484,236.628 532.286,236.79 C532.088,236.97 531.908,237.15 531.746,237.348 L531.278,237.852 C531.206,237.924 531.152,237.978 531.098,238.014 C531.044,238.068 530.99,238.14 530.9,238.23 C530.846,238.284 530.756,238.374 530.63,238.464 C530.486,238.572 530.378,238.644 530.324,238.68 C530.234,238.734 530.144,238.806 530.09,238.878 C530.036,238.95 529.964,239.022 529.874,239.094 C529.748,239.22 529.586,239.328 529.406,239.418 C529.226,239.508 529.046,239.598 528.884,239.688 C528.794,239.742 528.704,239.814 528.614,239.886 C528.524,239.976 528.434,240.048 528.344,240.102 C528.218,240.192 528.074,240.264 527.93,240.318 C527.768,240.39 527.624,240.462 527.498,240.534 C527.336,240.624 527.192,240.714 527.066,240.804 C526.922,240.894 526.76,240.984 526.598,241.038 C526.562,241.056 526.526,241.056 526.49,241.056 C526.454,241.056 526.418,241.056 526.382,241.074 C526.292,241.092 526.202,241.128 526.148,241.182 C526.076,241.236 526.004,241.272 525.914,241.29 C525.788,241.344 525.644,241.398 525.5,241.434 C525.338,241.47 525.194,241.524 525.068,241.578 C525.014,241.596 524.96,241.632 524.906,241.668 C524.852,241.704 524.78,241.74 524.726,241.758 C524.69,241.776 524.654,241.794 524.618,241.794 C524.564,241.812 524.528,241.812 524.492,241.83 C524.456,241.848 524.384,241.866 524.276,241.902 C524.168,241.956 524.06,241.992 523.952,242.046 C523.826,242.1 523.736,242.136 523.646,242.19 C523.556,242.244 523.502,242.298 523.502,242.334 C523.502,242.424 523.538,242.532 523.61,242.658 C523.664,242.802 523.718,242.91 523.754,242.982 C523.808,243.09 523.862,243.198 523.952,243.288 C524.024,243.378 524.132,243.432 524.258,243.432 C524.438,243.432 524.654,243.378 524.906,243.27 C525.158,243.144 525.356,243.036 525.518,242.946 C525.608,242.928 525.716,242.91 525.824,242.892 C525.932,242.892 526.04,242.856 526.13,242.802 C526.184,242.766 526.256,242.73 526.328,242.694 C526.4,242.658 526.472,242.622 526.526,242.586 C526.652,242.532 526.76,242.478 526.886,242.442 C527.012,242.406 527.12,242.352 527.228,242.298 C527.354,242.208 527.498,242.154 527.642,242.1 C527.786,242.046 527.93,241.992 528.056,241.902 C528.182,241.83 528.326,241.758 528.452,241.668 C528.578,241.596 528.686,241.524 528.812,241.434 C528.866,241.398 528.956,241.344 529.064,241.29 C529.172,241.236 529.244,241.2 529.262,241.182 C529.352,241.164 529.46,241.092 529.55,240.984 C529.64,240.894 529.73,240.804 529.82,240.75 C529.91,240.696 530.018,240.642 530.108,240.588 C530.198,240.534 530.306,240.48 530.396,240.426 C530.522,240.336 530.648,240.246 530.774,240.156 C530.9,240.084 531.026,239.994 531.152,239.904 C531.35,239.76 531.512,239.634 531.602,239.508 C531.692,239.4 531.818,239.274 531.98,239.112 C532.034,239.076 532.07,239.04 532.106,238.986 C532.142,238.95 532.178,238.914 532.232,238.86 C532.358,238.734 532.502,238.59 532.664,238.464 C532.808,238.338 532.952,238.212 533.078,238.086 C533.132,238.032 533.186,237.96 533.276,237.834 C533.366,237.726 533.402,237.636 533.402,237.582 C533.456,237.492 533.51,237.402 533.6,237.348 C533.672,237.294 533.744,237.24 533.798,237.15 C533.852,237.06 533.906,236.97 533.96,236.88 C534.014,236.79 534.05,236.7 534.104,236.61 C534.158,236.52 534.23,236.412 534.302,236.322 C534.374,236.232 534.446,236.142 534.5,236.052 C534.554,235.98 534.59,235.908 534.608,235.818 C534.608,235.728 534.626,235.656 534.68,235.584 C534.734,235.512 534.77,235.44 534.824,235.386 C534.878,235.332 534.914,235.26 534.968,235.188 C535.058,235.062 535.148,234.918 535.202,234.756 C535.256,234.594 535.292,234.45 535.346,234.306 C535.346,234.288 535.364,234.234 535.418,234.108 C535.454,233.982 535.508,233.856 535.562,233.73 C535.616,233.604 535.688,233.496 535.76,233.388 C535.814,233.28 535.886,233.226 535.94,233.226 C536.012,233.226 536.066,233.262 536.12,233.334 C536.156,233.406 536.192,233.442 536.246,233.442 L536.264,233.442 C536.282,233.442 536.3,233.424 536.318,233.388 L536.318,233.334 C536.336,233.28 536.372,233.208 536.426,233.118 C536.48,233.064 536.552,232.956 536.642,232.83 C536.714,232.704 536.75,232.596 536.75,232.506 L536.75,232.506 Z" id="リンク" sketch:type="MSShapeGroup"></path>
        </g>
    </g>
</svg>