<?xml version="1.0" encoding="UTF-8" standalone="no"?>
<svg width="48px" height="15px" viewBox="0 0 48 15" version="1.1" xmlns="http://www.w3.org/2000/svg" xmlns:xlink="http://www.w3.org/1999/xlink" xmlns:sketch="http://www.bohemiancoding.com/sketch/ns">
    <!-- Generator: Sketch 3.5.2 (25235) - http://www.bohemiancoding.com/sketch -->
    <title>ワーク</title>
    <desc>Created with Sketch.</desc>
    <defs></defs>
    <g id="Welcome" stroke="none" stroke-width="1" fill="none" fill-rule="evenodd" sketch:type="MSPage">
        <g id="colorful" sketch:type="MSArtboardGroup" transform="translate(-570.000000, -229.000000)" fill="#FFFFFF">
            <path d="M576.566,230.436 L575,230.436 C574.91,230.436 574.82,230.436 574.73,230.454 C574.64,230.472 574.532,230.454 574.442,230.436 C574.388,230.418 574.334,230.4 574.298,230.4 L574.154,230.4 C574.046,230.4 573.938,230.418 573.848,230.436 C573.74,230.454 573.632,230.472 573.524,230.472 C573.434,230.472 573.326,230.472 573.236,230.454 C573.128,230.436 573.02,230.436 572.894,230.436 C572.768,230.436 572.624,230.454 572.48,230.472 C572.336,230.49 572.192,230.508 572.066,230.508 C571.976,230.508 571.922,230.49 571.886,230.436 C571.832,230.382 571.796,230.328 571.778,230.256 C571.76,230.184 571.742,230.112 571.742,230.022 C571.724,229.932 571.724,229.86 571.724,229.806 L571.724,229.698 C571.742,229.68 571.742,229.662 571.742,229.626 L571.742,229.572 C571.742,229.518 571.706,229.482 571.634,229.464 C571.562,229.446 571.472,229.428 571.382,229.41 C571.292,229.392 571.202,229.392 571.112,229.392 L570.932,229.392 L570.77,229.392 C570.698,229.392 570.644,229.392 570.608,229.41 C570.554,229.428 570.518,229.464 570.5,229.5 C570.482,229.554 570.464,229.608 570.446,229.662 C570.428,229.716 570.428,229.77 570.428,229.824 C570.428,229.878 570.428,229.95 570.41,230.004 C570.392,230.13 570.374,230.238 570.356,230.364 C570.338,230.49 570.32,230.598 570.32,230.724 C570.32,230.796 570.338,230.868 570.356,230.94 C570.374,231.012 570.374,231.084 570.374,231.174 L570.374,231.516 C570.356,231.642 570.356,231.75 570.356,231.876 C570.356,232.074 570.374,232.272 570.392,232.47 C570.41,232.668 570.41,232.884 570.41,233.082 C570.41,233.136 570.41,233.19 570.392,233.226 C570.374,233.262 570.374,233.298 570.374,233.352 C570.374,233.442 570.392,233.514 570.41,233.586 C570.428,233.676 570.428,233.748 570.428,233.838 C570.428,233.982 570.428,234.126 570.41,234.252 C570.392,234.396 570.374,234.54 570.374,234.684 C570.374,234.81 570.374,234.918 570.392,235.026 L570.392,235.368 C570.392,235.494 570.374,235.638 570.356,235.782 C570.338,235.926 570.32,236.07 570.32,236.196 C570.32,236.304 570.338,236.394 570.374,236.466 C570.41,236.556 570.428,236.682 570.428,236.844 L570.428,236.934 C570.41,236.97 570.41,237.006 570.41,237.042 C570.41,237.096 570.41,237.132 570.428,237.168 C570.446,237.222 570.482,237.24 570.536,237.24 C570.554,237.24 570.59,237.24 570.626,237.222 C570.644,237.204 570.68,237.204 570.698,237.186 L570.806,237.186 C570.878,237.186 570.95,237.186 571.04,237.204 C571.112,237.222 571.184,237.24 571.256,237.24 C571.328,237.24 571.4,237.24 571.49,237.222 C571.562,237.222 571.634,237.186 571.688,237.132 C571.742,237.042 571.778,236.898 571.796,236.7 C571.814,236.52 571.814,236.376 571.814,236.268 C571.814,236.106 571.796,235.944 571.778,235.782 C571.742,235.62 571.724,235.476 571.724,235.314 L571.724,235.224 C571.724,235.206 571.724,235.188 571.742,235.17 C571.76,235.08 571.778,234.972 571.778,234.882 L571.778,234.612 L571.778,234.36 C571.76,234.27 571.76,234.198 571.76,234.108 C571.76,234.018 571.778,233.91 571.796,233.802 C571.814,233.712 571.814,233.604 571.814,233.514 C571.814,233.388 571.814,233.244 571.796,233.1 C571.778,232.956 571.778,232.812 571.778,232.686 C571.778,232.38 571.796,232.164 571.832,232.02 C571.85,231.894 571.922,231.804 572.012,231.75 C572.102,231.696 572.246,231.678 572.444,231.696 C572.642,231.714 572.894,231.714 573.218,231.714 C573.416,231.714 573.614,231.696 573.812,231.678 C573.992,231.66 574.172,231.642 574.352,231.642 C574.442,231.642 574.55,231.642 574.64,231.66 C574.73,231.678 574.82,231.696 574.91,231.696 C574.964,231.696 575.018,231.696 575.036,231.678 C575.162,231.678 575.306,231.696 575.45,231.714 C575.576,231.732 575.72,231.75 575.846,231.75 L576.134,231.75 C576.224,231.768 576.314,231.75 576.404,231.732 C576.44,231.714 576.476,231.714 576.512,231.696 L576.602,231.696 C576.728,231.696 576.854,231.696 576.98,231.714 C577.106,231.732 577.232,231.75 577.358,231.75 C577.466,231.75 577.574,231.75 577.682,231.732 C577.79,231.714 577.898,231.714 578.006,231.714 L578.186,231.714 C578.276,231.714 578.348,231.714 578.438,231.732 C578.528,231.75 578.6,231.768 578.672,231.786 C578.726,231.822 578.762,231.876 578.762,231.93 C578.762,232.002 578.744,232.092 578.726,232.2 C578.708,232.308 578.69,232.398 578.672,232.488 C578.654,232.65 578.636,232.812 578.618,232.956 C578.6,233.118 578.546,233.28 578.492,233.442 C578.474,233.496 578.438,233.568 578.42,233.658 C578.402,233.748 578.384,233.82 578.384,233.892 L578.384,234.072 C578.384,234.144 578.384,234.216 578.366,234.27 C578.312,234.54 578.222,234.846 578.078,235.152 C577.934,235.476 577.772,235.8 577.592,236.106 C577.412,236.43 577.232,236.736 577.034,237.024 C576.836,237.33 576.656,237.582 576.494,237.798 C576.404,237.924 576.278,238.05 576.134,238.176 C575.99,238.302 575.864,238.428 575.738,238.554 C575.648,238.644 575.576,238.716 575.504,238.806 C575.414,238.896 575.342,239.004 575.288,239.094 C575.27,239.112 575.252,239.148 575.234,239.184 C575.216,239.22 575.198,239.256 575.18,239.274 C575.162,239.292 575.126,239.31 575.108,239.328 C575.072,239.346 575.036,239.364 575.018,239.382 C574.964,239.436 574.892,239.49 574.82,239.544 C574.73,239.598 574.658,239.652 574.604,239.706 L574.1,240.12 C574.046,240.174 573.992,240.21 573.974,240.264 C573.938,240.318 573.884,240.354 573.83,240.408 C573.74,240.462 573.65,240.534 573.578,240.588 C573.488,240.66 573.416,240.732 573.326,240.786 C573.2,240.894 573.056,240.984 572.912,241.074 C572.75,241.164 572.606,241.272 572.462,241.362 C572.336,241.452 572.21,241.56 572.084,241.668 C571.958,241.776 571.814,241.884 571.688,241.992 C571.634,242.046 571.544,242.1 571.436,242.19 C571.31,242.28 571.256,242.37 571.256,242.442 C571.256,242.496 571.292,242.55 571.346,242.622 C571.4,242.712 571.454,242.784 571.526,242.874 C571.598,242.964 571.67,243.036 571.742,243.108 C571.814,243.162 571.868,243.216 571.904,243.234 C571.976,243.27 572.048,243.288 572.12,243.288 C572.192,243.288 572.282,243.252 572.408,243.198 C572.516,243.144 572.624,243.072 572.75,242.982 C572.876,242.91 572.984,242.838 573.11,242.748 C573.218,242.658 573.308,242.604 573.362,242.568 C573.488,242.478 573.614,242.406 573.74,242.334 C573.866,242.262 573.974,242.172 574.1,242.082 C574.19,242.01 574.28,241.92 574.352,241.812 C574.424,241.722 574.514,241.632 574.604,241.56 C574.658,241.506 574.73,241.452 574.82,241.434 C574.892,241.416 574.964,241.362 575.018,241.308 C575.216,241.11 575.396,240.93 575.594,240.75 C575.792,240.588 575.972,240.408 576.17,240.21 C576.26,240.12 576.368,240.03 576.494,239.94 C576.62,239.85 576.728,239.76 576.836,239.652 C576.926,239.562 576.98,239.49 577.034,239.4 C577.07,239.328 577.124,239.238 577.178,239.148 C577.178,239.148 577.196,239.13 577.25,239.076 C577.304,239.022 577.358,238.968 577.412,238.896 C577.466,238.842 577.538,238.77 577.592,238.716 C577.646,238.662 577.682,238.626 577.7,238.608 C577.916,238.356 578.114,238.086 578.294,237.798 C578.456,237.51 578.636,237.222 578.798,236.934 C578.852,236.808 578.906,236.7 578.942,236.574 C578.96,236.448 578.996,236.34 579.05,236.214 C579.086,236.124 579.122,236.052 579.158,236.016 C579.194,235.98 579.23,235.944 579.248,235.89 C579.302,235.8 579.356,235.674 579.428,235.548 C579.5,235.422 579.554,235.296 579.572,235.17 C579.59,235.044 579.626,234.918 579.644,234.81 C579.662,234.702 579.716,234.594 579.77,234.468 C579.806,234.378 579.824,234.27 579.842,234.162 C579.842,234.072 579.86,233.964 579.878,233.874 C579.932,233.676 579.986,233.478 580.04,233.28 C580.094,233.1 580.112,232.902 580.112,232.686 L580.112,232.524 C580.094,232.47 580.112,232.416 580.13,232.398 C580.13,232.38 580.148,232.344 580.166,232.308 C580.184,232.272 580.202,232.254 580.22,232.254 C580.31,232.254 580.382,232.272 580.454,232.326 C580.526,232.38 580.598,232.398 580.67,232.398 L580.706,232.398 C580.76,232.398 580.796,232.362 580.814,232.272 C580.85,232.11 580.94,231.948 581.066,231.786 C581.192,231.642 581.246,231.498 581.246,231.372 C581.246,231.318 581.228,231.246 581.174,231.192 C581.12,231.138 581.066,231.102 580.994,231.048 C580.922,231.012 580.85,230.976 580.778,230.958 C580.688,230.94 580.634,230.922 580.58,230.922 C580.49,230.922 580.4,230.886 580.31,230.832 C580.22,230.778 580.13,230.742 580.04,230.724 C579.95,230.688 579.842,230.652 579.752,230.634 C579.644,230.616 579.536,230.598 579.446,230.58 C579.284,230.544 579.122,230.526 578.96,230.508 L578.438,230.508 C578.33,230.508 578.222,230.508 578.114,230.49 C577.988,230.472 577.88,230.472 577.772,230.472 L577.592,230.472 C577.52,230.49 577.448,230.49 577.394,230.49 C577.25,230.49 577.106,230.472 576.98,230.454 C576.854,230.436 576.71,230.436 576.566,230.436 L576.566,230.436 Z M599.804,236.934 C599.876,236.934 599.984,236.934 600.146,236.916 C600.308,236.898 600.38,236.844 600.38,236.736 C600.38,236.7 600.38,236.682 600.362,236.664 L600.362,236.538 C600.38,236.52 600.38,236.466 600.38,236.412 L600.38,236.214 C600.362,236.16 600.362,236.088 600.362,236.034 C600.362,235.764 600.344,235.602 600.308,235.512 C600.272,235.422 600.11,235.386 599.84,235.386 C599.696,235.386 599.552,235.386 599.426,235.404 C599.282,235.422 599.138,235.44 598.994,235.44 C598.904,235.44 598.832,235.422 598.76,235.404 C598.67,235.386 598.598,235.386 598.508,235.386 C598.238,235.386 597.986,235.386 597.716,235.404 C597.446,235.422 597.194,235.44 596.924,235.44 C596.834,235.44 596.762,235.422 596.69,235.404 C596.6,235.386 596.51,235.386 596.42,235.386 C595.97,235.386 595.538,235.386 595.106,235.404 C594.656,235.422 594.224,235.44 593.774,235.44 C593.504,235.44 593.252,235.422 592.982,235.404 C592.712,235.386 592.46,235.386 592.19,235.386 C592.1,235.386 592.01,235.386 591.92,235.404 C591.83,235.422 591.74,235.44 591.65,235.44 C591.524,235.44 591.398,235.422 591.272,235.404 C591.146,235.386 591.002,235.386 590.876,235.386 C590.786,235.386 590.714,235.386 590.624,235.404 C590.534,235.422 590.462,235.422 590.372,235.422 C590.246,235.422 590.12,235.422 589.994,235.404 C589.868,235.386 589.742,235.386 589.616,235.386 C589.544,235.386 589.49,235.386 589.472,235.404 L589.4,235.404 C589.382,235.422 589.346,235.422 589.328,235.422 C589.274,235.422 589.238,235.422 589.184,235.404 C589.13,235.386 589.094,235.386 589.04,235.386 L588.734,235.386 C588.428,235.386 588.104,235.386 587.798,235.404 C587.492,235.422 587.168,235.44 586.862,235.44 C586.7,235.44 586.538,235.44 586.394,235.422 C586.232,235.404 586.07,235.404 585.908,235.404 L585.8,235.404 C585.728,235.422 585.674,235.44 585.638,235.44 C585.602,235.584 585.584,235.728 585.584,235.872 L585.584,236.286 C585.584,236.484 585.638,236.646 585.728,236.754 C585.818,236.88 585.962,236.934 586.178,236.934 C586.232,236.934 586.268,236.934 586.322,236.916 C586.358,236.898 586.394,236.898 586.448,236.898 C586.574,236.898 586.718,236.898 586.844,236.916 C586.97,236.934 587.096,236.952 587.222,236.952 C587.474,236.952 587.726,236.934 587.996,236.916 C588.248,236.898 588.5,236.898 588.752,236.898 L591.884,236.898 C592.262,236.898 592.658,236.898 593.054,236.916 C593.432,236.934 593.828,236.934 594.206,236.934 C594.26,236.934 594.332,236.934 594.386,236.916 C594.44,236.898 594.494,236.898 594.548,236.898 C594.764,236.898 594.98,236.898 595.214,236.916 C595.43,236.934 595.646,236.952 595.862,236.952 C596.024,236.952 596.204,236.934 596.366,236.916 C596.528,236.898 596.708,236.898 596.87,236.898 C597.014,236.898 597.158,236.898 597.302,236.916 C597.428,236.934 597.572,236.952 597.698,236.952 C597.752,236.952 597.788,236.952 597.842,236.934 C597.896,236.916 597.932,236.916 597.986,236.916 C598.13,236.916 598.274,236.916 598.418,236.934 C598.562,236.952 598.706,236.952 598.85,236.952 C598.94,236.952 599.012,236.934 599.084,236.916 C599.156,236.898 599.228,236.898 599.318,236.898 C599.408,236.898 599.48,236.898 599.57,236.916 C599.642,236.934 599.714,236.934 599.804,236.934 L599.804,236.934 Z M617.75,232.506 C617.75,232.38 617.696,232.272 617.57,232.218 C617.444,232.164 617.318,232.128 617.228,232.074 C617.174,232.056 617.102,232.038 617.048,232.038 C616.976,232.038 616.904,232.02 616.832,231.984 C616.508,231.822 616.202,231.714 615.896,231.696 C615.59,231.678 615.266,231.66 614.924,231.624 C614.816,231.606 614.708,231.606 614.582,231.588 C614.456,231.57 614.348,231.57 614.24,231.57 C614.078,231.57 613.916,231.57 613.772,231.588 C613.61,231.606 613.448,231.624 613.286,231.624 C613.268,231.624 613.214,231.624 613.124,231.606 C613.034,231.606 612.926,231.606 612.836,231.588 C612.728,231.588 612.638,231.588 612.548,231.57 L612.422,231.57 C612.404,231.552 612.404,231.534 612.386,231.48 C612.368,231.426 612.368,231.39 612.368,231.372 C612.368,231.336 612.386,231.264 612.404,231.156 C612.422,231.066 612.458,230.94 612.476,230.814 C612.494,230.688 612.53,230.58 612.566,230.472 C612.584,230.382 612.602,230.31 612.62,230.274 C612.62,230.256 612.62,230.238 612.638,230.22 L612.638,230.184 C612.656,230.058 612.692,229.914 612.71,229.77 C612.728,229.626 612.728,229.482 612.728,229.338 C612.728,229.284 612.728,229.248 612.71,229.194 C612.692,229.158 612.638,229.14 612.584,229.14 C612.476,229.14 612.368,229.14 612.278,229.158 C612.17,229.176 612.062,229.176 611.954,229.176 C611.882,229.176 611.774,229.176 611.648,229.158 C611.522,229.14 611.432,229.176 611.396,229.266 C611.378,229.32 611.36,229.392 611.342,229.482 C611.324,229.572 611.324,229.644 611.306,229.698 C611.288,229.86 611.252,230.004 611.216,230.13 C611.162,230.274 611.126,230.418 611.108,230.58 C611.09,230.634 611.09,230.706 611.09,230.778 C611.072,230.85 611.054,230.922 611.036,230.976 C610.982,231.138 610.91,231.336 610.784,231.552 C610.658,231.786 610.55,231.966 610.442,232.092 C610.37,232.182 610.298,232.272 610.208,232.344 C610.118,232.434 610.046,232.524 609.974,232.614 C609.884,232.722 609.812,232.83 609.758,232.938 C609.704,233.064 609.614,233.172 609.524,233.262 C609.416,233.37 609.308,233.46 609.2,233.532 C609.074,233.622 608.966,233.712 608.858,233.802 L608.696,233.964 C608.642,234.018 608.57,234.09 608.498,234.144 C608.372,234.234 608.246,234.342 608.12,234.468 C607.994,234.594 607.868,234.702 607.742,234.81 C607.706,234.828 607.634,234.882 607.544,234.954 C607.436,235.026 607.364,235.062 607.328,235.062 C607.292,235.062 607.256,235.08 607.238,235.098 C607.004,235.26 606.77,235.404 606.536,235.494 C606.446,235.548 606.338,235.602 606.248,235.674 C606.14,235.746 606.032,235.818 605.942,235.872 C605.888,235.89 605.816,235.944 605.69,235.998 C605.564,236.052 605.456,236.124 605.33,236.196 C605.204,236.286 605.078,236.358 604.988,236.43 C604.88,236.502 604.826,236.556 604.826,236.592 C604.826,236.628 604.862,236.682 604.916,236.736 C605.006,236.808 605.096,236.88 605.15,236.97 C605.204,237.06 605.258,237.168 605.312,237.258 C605.384,237.384 605.492,237.456 605.654,237.456 C605.708,237.456 605.798,237.438 605.906,237.402 C605.996,237.384 606.104,237.348 606.212,237.294 C606.302,237.258 606.41,237.204 606.5,237.15 C606.59,237.096 606.662,237.06 606.698,237.006 C606.77,236.934 606.824,236.88 606.86,236.862 C607.022,236.772 607.202,236.664 607.418,236.574 C608.012,236.268 608.534,235.908 608.966,235.476 C609.092,235.35 609.218,235.26 609.344,235.188 C609.452,235.134 609.578,235.062 609.74,234.972 C609.902,234.882 610.1,234.72 610.298,234.504 C610.496,234.306 610.676,234.126 610.82,233.964 C610.91,233.874 610.982,233.784 611.054,233.694 C611.108,233.604 611.18,233.514 611.252,233.424 C611.342,233.334 611.432,233.208 611.522,233.064 C611.594,232.92 611.72,232.848 611.882,232.848 L612.062,232.848 C612.116,232.866 612.17,232.866 612.224,232.866 C612.296,232.866 612.368,232.866 612.458,232.848 L612.674,232.848 C612.8,232.848 612.926,232.866 613.034,232.902 C613.142,232.938 613.268,232.956 613.394,232.956 C613.52,232.956 613.646,232.938 613.772,232.902 C613.88,232.884 614.006,232.866 614.132,232.866 C614.258,232.866 614.384,232.866 614.51,232.884 C614.636,232.902 614.762,232.902 614.888,232.902 C614.942,232.902 614.996,232.902 615.068,232.884 C615.122,232.866 615.158,232.902 615.158,232.974 C615.158,233.064 615.14,233.154 615.122,233.262 C615.086,233.37 615.05,233.46 615.032,233.55 C614.996,233.712 614.942,233.91 614.852,234.162 C614.762,234.432 614.654,234.63 614.564,234.756 L614.168,235.35 C614.15,235.368 614.132,235.404 614.132,235.422 C614.132,235.458 614.132,235.494 614.114,235.512 C614.078,235.638 614.024,235.764 613.97,235.872 C613.916,235.998 613.844,236.106 613.772,236.214 C613.646,236.43 613.484,236.628 613.286,236.79 C613.088,236.97 612.908,237.15 612.746,237.348 L612.278,237.852 C612.206,237.924 612.152,237.978 612.098,238.014 C612.044,238.068 611.99,238.14 611.9,238.23 C611.846,238.284 611.756,238.374 611.63,238.464 C611.486,238.572 611.378,238.644 611.324,238.68 C611.234,238.734 611.144,238.806 611.09,238.878 C611.036,238.95 610.964,239.022 610.874,239.094 C610.748,239.22 610.586,239.328 610.406,239.418 C610.226,239.508 610.046,239.598 609.884,239.688 C609.794,239.742 609.704,239.814 609.614,239.886 C609.524,239.976 609.434,240.048 609.344,240.102 C609.218,240.192 609.074,240.264 608.93,240.318 C608.768,240.39 608.624,240.462 608.498,240.534 C608.336,240.624 608.192,240.714 608.066,240.804 C607.922,240.894 607.76,240.984 607.598,241.038 C607.562,241.056 607.526,241.056 607.49,241.056 C607.454,241.056 607.418,241.056 607.382,241.074 C607.292,241.092 607.202,241.128 607.148,241.182 C607.076,241.236 607.004,241.272 606.914,241.29 C606.788,241.344 606.644,241.398 606.5,241.434 C606.338,241.47 606.194,241.524 606.068,241.578 C606.014,241.596 605.96,241.632 605.906,241.668 C605.852,241.704 605.78,241.74 605.726,241.758 C605.69,241.776 605.654,241.794 605.618,241.794 C605.564,241.812 605.528,241.812 605.492,241.83 C605.456,241.848 605.384,241.866 605.276,241.902 C605.168,241.956 605.06,241.992 604.952,242.046 C604.826,242.1 604.736,242.136 604.646,242.19 C604.556,242.244 604.502,242.298 604.502,242.334 C604.502,242.424 604.538,242.532 604.61,242.658 C604.664,242.802 604.718,242.91 604.754,242.982 C604.808,243.09 604.862,243.198 604.952,243.288 C605.024,243.378 605.132,243.432 605.258,243.432 C605.438,243.432 605.654,243.378 605.906,243.27 C606.158,243.144 606.356,243.036 606.518,242.946 C606.608,242.928 606.716,242.91 606.824,242.892 C606.932,242.892 607.04,242.856 607.13,242.802 C607.184,242.766 607.256,242.73 607.328,242.694 C607.4,242.658 607.472,242.622 607.526,242.586 C607.652,242.532 607.76,242.478 607.886,242.442 C608.012,242.406 608.12,242.352 608.228,242.298 C608.354,242.208 608.498,242.154 608.642,242.1 C608.786,242.046 608.93,241.992 609.056,241.902 C609.182,241.83 609.326,241.758 609.452,241.668 C609.578,241.596 609.686,241.524 609.812,241.434 C609.866,241.398 609.956,241.344 610.064,241.29 C610.172,241.236 610.244,241.2 610.262,241.182 C610.352,241.164 610.46,241.092 610.55,240.984 C610.64,240.894 610.73,240.804 610.82,240.75 C610.91,240.696 611.018,240.642 611.108,240.588 C611.198,240.534 611.306,240.48 611.396,240.426 C611.522,240.336 611.648,240.246 611.774,240.156 C611.9,240.084 612.026,239.994 612.152,239.904 C612.35,239.76 612.512,239.634 612.602,239.508 C612.692,239.4 612.818,239.274 612.98,239.112 C613.034,239.076 613.07,239.04 613.106,238.986 C613.142,238.95 613.178,238.914 613.232,238.86 C613.358,238.734 613.502,238.59 613.664,238.464 C613.808,238.338 613.952,238.212 614.078,238.086 C614.132,238.032 614.186,237.96 614.276,237.834 C614.366,237.726 614.402,237.636 614.402,237.582 C614.456,237.492 614.51,237.402 614.6,237.348 C614.672,237.294 614.744,237.24 614.798,237.15 C614.852,237.06 614.906,236.97 614.96,236.88 C615.014,236.79 615.05,236.7 615.104,236.61 C615.158,236.52 615.23,236.412 615.302,236.322 C615.374,236.232 615.446,236.142 615.5,236.052 C615.554,235.98 615.59,235.908 615.608,235.818 C615.608,235.728 615.626,235.656 615.68,235.584 C615.734,235.512 615.77,235.44 615.824,235.386 C615.878,235.332 615.914,235.26 615.968,235.188 C616.058,235.062 616.148,234.918 616.202,234.756 C616.256,234.594 616.292,234.45 616.346,234.306 C616.346,234.288 616.364,234.234 616.418,234.108 C616.454,233.982 616.508,233.856 616.562,233.73 C616.616,233.604 616.688,233.496 616.76,233.388 C616.814,233.28 616.886,233.226 616.94,233.226 C617.012,233.226 617.066,233.262 617.12,233.334 C617.156,233.406 617.192,233.442 617.246,233.442 L617.264,233.442 C617.282,233.442 617.3,233.424 617.318,233.388 L617.318,233.334 C617.336,233.28 617.372,233.208 617.426,233.118 C617.48,233.064 617.552,232.956 617.642,232.83 C617.714,232.704 617.75,232.596 617.75,232.506 L617.75,232.506 Z" id="ワーク" sketch:type="MSShapeGroup"></path>
        </g>
    </g>
</svg>