<?xml version="1.0" encoding="UTF-8" standalone="no"?>
<svg width="50px" height="17px" viewBox="0 0 50 17" version="1.1" xmlns="http://www.w3.org/2000/svg" xmlns:xlink="http://www.w3.org/1999/xlink" xmlns:sketch="http://www.bohemiancoding.com/sketch/ns">
    <!-- Generator: Sketch 3.5.2 (25235) - http://www.bohemiancoding.com/sketch -->
    <title>トップ</title>
    <desc>Created with Sketch.</desc>
    <defs></defs>
    <g id="Welcome" stroke="none" stroke-width="1" fill="none" fill-rule="evenodd" sketch:type="MSPage">
        <g id="colorful" sketch:type="MSArtboardGroup" transform="translate(-409.000000, -227.000000)" fill="#FFFFFF">
            <path d="M413.928,236.214 C414.072,236.214 414.234,236.232 414.414,236.286 C414.594,236.34 414.756,236.394 414.918,236.448 C415.062,236.52 415.188,236.574 415.314,236.628 C415.422,236.682 415.494,236.7 415.512,236.7 C415.656,236.772 415.836,236.826 416.034,236.88 C416.232,236.934 416.394,237.006 416.556,237.078 C416.826,237.204 417.078,237.312 417.33,237.42 C417.582,237.546 417.834,237.672 418.068,237.816 C418.14,237.852 418.23,237.906 418.32,237.978 C418.41,238.05 418.518,238.122 418.626,238.176 C418.734,238.248 418.842,238.302 418.95,238.356 C419.04,238.41 419.13,238.446 419.202,238.446 C419.292,238.446 419.382,238.41 419.472,238.356 C419.562,238.302 419.634,238.248 419.706,238.158 C419.778,238.068 419.832,237.978 419.886,237.888 C419.94,237.798 419.958,237.708 419.958,237.636 C419.958,237.528 419.868,237.402 419.706,237.258 C419.526,237.114 419.328,236.97 419.094,236.826 C418.86,236.7 418.644,236.574 418.428,236.466 C418.194,236.358 418.032,236.286 417.942,236.25 C417.852,236.214 417.762,236.16 417.672,236.088 C417.582,236.016 417.474,235.962 417.384,235.908 C417.33,235.89 417.276,235.854 417.222,235.836 C417.168,235.818 417.114,235.8 417.06,235.782 C416.97,235.728 416.88,235.674 416.808,235.62 C416.718,235.566 416.628,235.53 416.538,235.494 C416.484,235.476 416.43,235.458 416.394,235.458 C416.34,235.458 416.286,235.44 416.232,235.422 C415.962,235.314 415.674,235.188 415.404,235.062 C415.116,234.936 414.828,234.882 414.54,234.882 C414.468,234.882 414.396,234.918 414.342,234.99 C414.288,235.062 414.234,235.152 414.198,235.242 C414.162,235.332 414.126,235.44 414.108,235.53 C414.072,235.62 414.054,235.71 414.036,235.764 C414.018,235.782 414,235.854 413.982,235.962 C413.946,236.088 413.928,236.16 413.928,236.178 L413.928,236.214 Z M413.064,242.154 L413.064,241.614 C413.064,241.56 413.064,241.488 413.082,241.434 C413.1,241.38 413.1,241.326 413.1,241.272 C413.1,241.11 413.082,240.966 413.046,240.804 C413.01,240.66 412.992,240.516 412.992,240.354 L412.992,240.138 C412.974,240.048 412.992,239.994 413.01,239.94 C413.01,239.922 413.028,239.868 413.046,239.814 C413.064,239.76 413.064,239.724 413.082,239.706 C413.082,239.67 413.082,239.652 413.1,239.634 C413.082,239.598 413.082,239.562 413.064,239.508 C413.046,239.472 413.046,239.436 413.046,239.4 C413.046,239.328 413.064,239.256 413.082,239.184 C413.1,239.112 413.1,239.04 413.1,238.968 C413.1,238.896 413.1,238.824 413.082,238.752 C413.064,238.698 413.064,238.626 413.064,238.554 C413.064,238.446 413.082,238.338 413.118,238.23 C413.136,238.122 413.154,238.014 413.154,237.906 L413.154,237.78 C413.136,237.744 413.136,237.708 413.118,237.654 C413.1,237.564 413.082,237.438 413.064,237.24 C413.046,237.042 413.046,236.898 413.046,236.808 C413.046,236.682 413.046,236.538 413.064,236.412 L413.064,236.034 C413.064,235.98 413.064,235.908 413.046,235.836 C413.028,235.782 413.028,235.71 413.028,235.656 C413.028,235.584 413.028,235.512 413.046,235.44 C413.064,235.368 413.064,235.296 413.064,235.224 L413.064,234.666 C413.064,234.612 413.064,234.576 413.082,234.522 C413.1,234.486 413.1,234.45 413.1,234.396 L413.1,234.09 C413.082,234 413.082,233.892 413.082,233.802 C413.082,233.712 413.082,233.64 413.1,233.55 C413.118,233.478 413.118,233.406 413.118,233.316 C413.118,233.226 413.1,233.118 413.082,233.028 C413.064,232.938 413.046,232.83 413.046,232.74 C413.046,232.686 413.046,232.632 413.064,232.578 L413.064,232.434 C413.064,232.362 413.064,232.308 413.046,232.254 C413.028,232.2 413.01,232.146 412.992,232.092 L412.92,231.48 L412.866,230.994 C412.848,230.94 412.848,230.904 412.83,230.868 C412.812,230.832 412.794,230.796 412.776,230.742 C412.758,230.616 412.722,230.508 412.704,230.382 C412.668,230.274 412.614,230.166 412.542,230.076 C412.38,229.842 412.2,229.662 412.02,229.5 C411.84,229.338 411.624,229.212 411.354,229.122 C411.192,229.068 410.994,228.996 410.76,228.924 C410.526,228.852 410.328,228.816 410.166,228.816 C410.148,228.834 410.13,228.834 410.112,228.852 C410.094,228.87 410.076,228.87 410.058,228.87 C410.022,228.87 409.986,228.87 409.95,228.852 L409.86,228.852 C409.806,228.852 409.752,228.888 409.734,228.978 C409.716,229.014 409.716,229.086 409.716,229.194 C409.698,229.302 409.698,229.41 409.698,229.536 C409.68,229.662 409.68,229.788 409.68,229.914 L409.68,230.166 C409.68,230.202 409.68,230.238 409.698,230.274 C409.698,230.31 409.716,230.328 409.77,230.328 C409.788,230.346 409.824,230.346 409.86,230.346 L409.968,230.346 C410.004,230.364 410.04,230.346 410.058,230.328 C410.112,230.328 410.184,230.328 410.238,230.31 L410.4,230.31 C410.418,230.31 410.472,230.328 410.526,230.346 C410.58,230.364 410.616,230.382 410.634,230.4 C410.958,230.562 411.192,230.814 411.318,231.156 C411.444,231.498 411.498,231.84 411.498,232.182 L411.498,232.74 C411.498,232.938 411.516,233.118 411.552,233.298 C411.57,233.496 411.588,233.676 411.588,233.874 C411.588,234.036 411.588,234.18 411.57,234.324 C411.552,234.468 411.534,234.612 411.534,234.774 C411.534,234.792 411.534,234.81 411.552,234.828 C411.57,234.846 411.57,234.864 411.57,234.9 L411.57,236.034 C411.57,236.106 411.57,236.178 411.588,236.232 C411.606,236.304 411.606,236.376 411.606,236.448 C411.606,236.592 411.588,236.736 411.57,236.862 C411.534,237.006 411.516,237.15 411.516,237.294 C411.516,237.474 411.534,237.654 411.552,237.834 C411.57,238.014 411.588,238.194 411.588,238.374 C411.588,238.572 411.588,238.77 411.57,238.968 C411.552,239.166 411.552,239.382 411.552,239.58 C411.552,239.706 411.552,239.85 411.57,239.994 L411.57,240.408 C411.57,240.498 411.552,240.606 411.534,240.696 C411.516,240.804 411.498,240.912 411.498,241.002 C411.498,241.092 411.516,241.164 411.552,241.218 C411.57,241.29 411.588,241.38 411.588,241.47 C411.588,241.506 411.588,241.542 411.57,241.56 L411.57,241.884 C411.552,241.992 411.552,242.1 411.552,242.208 C411.552,242.334 411.534,242.46 411.516,242.586 C411.498,242.712 411.48,242.838 411.48,242.964 C411.48,243.108 411.498,243.252 411.534,243.378 C411.57,243.504 411.588,243.648 411.588,243.792 C411.588,243.81 411.588,243.846 411.606,243.9 C411.606,243.954 411.624,243.972 411.642,243.972 C411.66,243.972 411.714,243.954 411.804,243.918 C411.894,243.864 411.984,243.846 412.074,243.846 L412.614,243.846 C412.668,243.846 412.722,243.846 412.776,243.864 C412.83,243.882 412.884,243.882 412.938,243.882 C413.028,243.882 413.064,243.846 413.064,243.792 L413.064,243.648 C413.046,243.63 413.046,243.594 413.046,243.558 C413.046,243.432 413.064,243.306 413.082,243.18 C413.1,243.054 413.118,242.928 413.118,242.802 C413.118,242.694 413.118,242.586 413.1,242.478 C413.082,242.37 413.064,242.262 413.064,242.154 L413.064,242.154 Z M429.894,237.618 L429.894,237.258 C429.894,237.024 429.858,236.772 429.768,236.52 C429.678,236.268 429.57,236.034 429.462,235.818 C429.426,235.746 429.354,235.638 429.246,235.494 C429.138,235.368 429.03,235.224 428.904,235.08 C428.778,234.936 428.652,234.81 428.526,234.684 C428.4,234.558 428.31,234.486 428.238,234.432 C428.148,234.378 428.022,234.342 427.896,234.342 C427.806,234.342 427.68,234.396 427.554,234.504 C427.428,234.63 427.338,234.738 427.284,234.828 C427.266,234.882 427.248,234.954 427.248,235.044 C427.248,235.098 427.284,235.152 427.338,235.242 C427.392,235.332 427.464,235.404 427.536,235.476 C427.608,235.566 427.68,235.638 427.752,235.692 L427.896,235.836 C427.986,235.926 428.076,236.034 428.148,236.16 C428.22,236.286 428.292,236.43 428.346,236.556 C428.382,236.646 428.418,236.736 428.472,236.826 C428.508,236.916 428.526,237.024 428.526,237.114 C428.526,237.204 428.526,237.276 428.508,237.348 C428.49,237.42 428.472,237.492 428.472,237.564 C428.472,237.762 428.508,237.888 428.58,237.906 C428.652,237.942 428.796,237.96 428.994,237.96 C429.066,237.96 429.138,237.96 429.21,237.942 C429.282,237.924 429.354,237.924 429.426,237.924 C429.57,237.924 429.678,237.924 429.768,237.906 C429.858,237.888 429.894,237.798 429.894,237.618 L429.894,237.618 Z M429.606,243.45 C429.624,243.432 429.642,243.396 429.696,243.378 C429.786,243.324 429.858,243.288 429.948,243.27 C430.038,243.234 430.128,243.198 430.218,243.162 C430.362,243.108 430.506,243.036 430.65,242.946 C430.776,242.874 430.92,242.802 431.046,242.73 C431.208,242.64 431.388,242.568 431.568,242.478 C431.748,242.406 431.928,242.334 432.09,242.244 C432.252,242.172 432.414,242.082 432.54,241.974 C432.666,241.884 432.792,241.776 432.936,241.686 C432.99,241.668 433.026,241.632 433.08,241.614 C433.134,241.596 433.17,241.578 433.224,241.56 C433.26,241.542 433.296,241.506 433.332,241.488 C433.35,241.47 433.386,241.452 433.422,241.434 C433.638,241.308 433.854,241.128 434.052,240.93 C434.25,240.732 434.448,240.534 434.628,240.336 C434.754,240.21 434.898,240.084 435.024,239.958 C435.15,239.832 435.276,239.724 435.402,239.598 C435.564,239.436 435.708,239.274 435.816,239.076 C435.924,238.878 436.05,238.698 436.176,238.518 C436.23,238.446 436.284,238.374 436.338,238.32 C436.392,238.266 436.446,238.194 436.5,238.122 C436.734,237.816 436.914,237.51 437.004,237.24 C437.094,236.97 437.184,236.664 437.256,236.286 C437.274,236.124 437.328,235.962 437.382,235.818 C437.436,235.692 437.454,235.53 437.454,235.368 C437.454,235.278 437.436,235.188 437.418,235.098 C437.4,235.008 437.382,234.936 437.364,234.846 C437.31,234.576 437.238,234.36 437.148,234.162 C437.058,233.982 436.896,233.802 436.698,233.622 C436.644,233.568 436.536,233.478 436.41,233.352 C436.266,233.244 436.158,233.19 436.068,233.19 C436.05,233.19 435.996,233.226 435.924,233.28 C435.852,233.352 435.78,233.424 435.69,233.514 C435.6,233.604 435.528,233.694 435.474,233.784 C435.42,233.874 435.384,233.928 435.384,233.946 C435.384,234.054 435.42,234.162 435.51,234.252 C435.582,234.342 435.672,234.45 435.762,234.576 C435.852,234.702 435.924,234.828 436.014,234.954 C436.086,235.098 436.122,235.26 436.122,235.44 C436.122,235.602 436.086,235.764 436.032,235.962 C435.978,236.16 435.906,236.358 435.816,236.556 C435.726,236.754 435.636,236.952 435.528,237.132 C435.42,237.312 435.33,237.456 435.24,237.582 C435.222,237.618 435.168,237.69 435.096,237.78 C435.024,237.87 434.952,237.978 434.88,238.068 C434.79,238.176 434.718,238.266 434.664,238.356 C434.61,238.446 434.574,238.518 434.556,238.536 C434.502,238.59 434.448,238.662 434.394,238.716 C434.34,238.788 434.286,238.86 434.232,238.914 C434.178,238.968 434.106,239.04 434.034,239.094 C433.944,239.148 433.872,239.22 433.8,239.274 C433.71,239.346 433.62,239.418 433.566,239.508 C433.494,239.598 433.422,239.67 433.35,239.76 C433.206,239.922 433.044,240.048 432.882,240.138 C432.72,240.228 432.558,240.354 432.432,240.552 C432.414,240.57 432.342,240.624 432.234,240.696 C432.108,240.786 432.036,240.84 432,240.858 C431.82,240.984 431.64,241.074 431.46,241.164 C431.28,241.254 431.082,241.326 430.884,241.398 C430.74,241.452 430.596,241.524 430.47,241.614 C430.326,241.704 430.182,241.794 430.056,241.866 C429.894,241.956 429.696,242.046 429.462,242.118 C429.3,242.172 429.138,242.244 428.976,242.316 C428.814,242.388 428.652,242.46 428.49,242.514 C428.364,242.568 428.22,242.604 428.058,242.622 C427.896,242.64 427.752,242.676 427.608,242.712 C427.5,242.73 427.41,242.784 427.338,242.838 C427.266,242.892 427.23,242.982 427.23,243.108 C427.23,243.288 427.266,243.468 427.356,243.666 C427.446,243.864 427.59,243.954 427.806,243.954 C427.86,243.954 427.986,243.936 428.166,243.9 C428.328,243.846 428.526,243.81 428.724,243.756 C428.922,243.702 429.102,243.648 429.264,243.594 C429.426,243.54 429.552,243.486 429.606,243.45 L429.606,243.45 Z M433.26,236.412 C433.26,236.286 433.242,236.106 433.206,235.89 C433.17,235.692 433.116,235.53 433.062,235.422 C433.044,235.386 433.008,235.35 432.99,235.314 C432.972,235.278 432.954,235.242 432.936,235.206 C432.9,235.17 432.882,235.134 432.882,235.098 C432.846,235.044 432.81,234.972 432.792,234.882 C432.756,234.81 432.702,234.738 432.648,234.684 C432.558,234.594 432.486,234.522 432.414,234.45 C432.324,234.378 432.252,234.288 432.198,234.198 C432.036,233.964 431.838,233.748 431.64,233.586 C431.442,233.424 431.208,233.262 430.974,233.1 C430.956,233.154 430.92,233.208 430.848,233.262 C430.776,233.316 430.704,233.388 430.632,233.46 C430.542,233.532 430.47,233.604 430.416,233.694 C430.362,233.784 430.326,233.874 430.326,233.982 C430.326,234.036 430.362,234.108 430.416,234.18 C430.47,234.252 430.524,234.306 430.578,234.342 C430.65,234.396 430.722,234.468 430.812,234.522 C430.902,234.594 430.974,234.666 431.046,234.738 C431.136,234.828 431.226,234.936 431.334,235.062 C431.442,235.188 431.55,235.332 431.64,235.476 C431.73,235.638 431.82,235.782 431.892,235.926 C431.946,236.088 431.982,236.214 431.982,236.34 C431.982,236.43 431.982,236.502 431.964,236.574 C431.946,236.646 431.946,236.718 431.946,236.79 C431.946,236.826 431.946,236.898 431.964,236.988 C431.982,237.096 432.018,237.15 432.072,237.15 C432.09,237.15 432.144,237.15 432.198,237.132 C432.252,237.114 432.288,237.114 432.306,237.096 L432.414,237.096 C432.504,237.096 432.594,237.096 432.684,237.114 C432.774,237.132 432.864,237.15 432.954,237.15 C433.152,237.15 433.26,237.042 433.26,236.826 L433.26,236.412 Z M448.92,231.588 L447.282,231.588 C447.156,231.588 447.048,231.57 446.94,231.552 C446.814,231.534 446.706,231.534 446.598,231.534 C446.544,231.534 446.472,231.534 446.418,231.552 C446.346,231.57 446.274,231.57 446.22,231.57 C446.166,231.57 446.094,231.57 446.04,231.552 C445.986,231.534 445.914,231.534 445.86,231.534 C445.752,231.534 445.644,231.552 445.536,231.588 C445.41,231.624 445.284,231.642 445.158,231.642 L444.51,231.642 C444.474,231.642 444.438,231.624 444.42,231.606 C444.384,231.588 444.366,231.588 444.348,231.588 C444.33,231.588 444.33,231.606 444.33,231.624 C444.312,231.642 444.312,231.66 444.312,231.696 L444.312,231.786 C444.366,231.876 444.366,231.984 444.33,232.11 C444.276,232.236 444.258,232.362 444.258,232.452 C444.258,232.506 444.258,232.542 444.276,232.56 C444.276,232.65 444.294,232.704 444.348,232.74 C444.402,232.794 444.456,232.812 444.51,232.83 C444.564,232.848 444.636,232.866 444.708,232.866 L444.906,232.866 C445.086,232.866 445.266,232.866 445.446,232.848 L445.95,232.848 L447.534,232.848 C447.696,232.848 447.876,232.866 448.056,232.884 C448.218,232.902 448.398,232.92 448.578,232.92 C448.65,232.92 448.722,232.902 448.794,232.884 C448.866,232.866 448.938,232.866 449.01,232.866 L449.532,232.866 C449.712,232.884 449.892,232.866 450.054,232.848 C450.144,232.83 450.252,232.83 450.342,232.812 L450.63,232.812 C450.756,232.812 450.882,232.83 450.99,232.866 C451.098,232.902 451.224,232.92 451.35,232.92 C451.44,232.92 451.548,232.902 451.638,232.884 C451.728,232.866 451.818,232.866 451.908,232.866 C451.998,232.866 452.106,232.866 452.196,232.884 C452.286,232.902 452.394,232.902 452.484,232.902 C452.52,232.902 452.538,232.902 452.556,232.884 C452.628,232.884 452.718,232.866 452.808,232.848 C452.898,232.83 452.988,232.83 453.078,232.83 L453.456,232.83 C453.474,232.848 453.492,232.884 453.492,232.902 C453.492,233.154 453.456,233.388 453.384,233.622 C453.312,233.856 453.222,234.072 453.132,234.306 C453.078,234.468 453.024,234.612 452.988,234.774 C452.934,234.936 452.88,235.08 452.826,235.242 C452.79,235.314 452.754,235.386 452.7,235.44 C452.646,235.494 452.61,235.566 452.574,235.638 L452.304,236.124 C452.268,236.178 452.214,236.268 452.142,236.358 C452.07,236.448 451.998,236.556 451.926,236.646 C451.836,236.736 451.764,236.826 451.71,236.916 C451.638,237.006 451.602,237.06 451.584,237.114 C451.566,237.132 451.53,237.168 451.512,237.222 C451.422,237.366 451.296,237.51 451.152,237.654 C450.954,237.852 450.756,238.014 450.558,238.176 C450.36,238.338 450.144,238.5 449.946,238.662 C449.802,238.788 449.658,238.914 449.532,239.04 C449.388,239.166 449.226,239.292 449.064,239.382 C448.938,239.472 448.812,239.544 448.686,239.598 C448.56,239.652 448.416,239.724 448.254,239.778 C448.128,239.832 448.002,239.904 447.876,239.994 C447.75,240.102 447.606,240.192 447.48,240.246 C447.426,240.264 447.354,240.282 447.282,240.3 C447.21,240.318 447.138,240.354 447.084,240.372 C447.03,240.39 446.958,240.426 446.886,240.48 C446.814,240.534 446.742,240.57 446.688,240.588 C446.634,240.606 446.562,240.624 446.49,240.642 C446.418,240.66 446.346,240.678 446.292,240.696 C446.184,240.714 446.058,240.768 445.932,240.84 C445.788,240.93 445.662,241.002 445.536,241.056 C445.446,241.092 445.32,241.128 445.176,241.164 C445.014,241.218 444.888,241.254 444.798,241.272 C444.78,241.272 444.744,241.29 444.69,241.308 C444.636,241.344 444.564,241.38 444.51,241.416 C444.438,241.452 444.366,241.488 444.312,241.506 C444.258,241.542 444.222,241.56 444.222,241.56 C444.204,241.578 444.168,241.614 444.114,241.632 C444.06,241.65 444.024,241.686 444.024,241.722 C444.024,241.794 444.06,241.866 444.132,241.956 C444.186,242.046 444.24,242.118 444.258,242.172 C444.312,242.208 444.366,242.262 444.384,242.334 C444.402,242.406 444.438,242.478 444.474,242.55 C444.492,242.622 444.528,242.676 444.564,242.73 C444.6,242.784 444.654,242.82 444.744,242.82 C444.87,242.82 444.978,242.784 445.104,242.73 C445.212,242.676 445.32,242.64 445.428,242.604 C445.482,242.586 445.518,242.568 445.572,242.55 C445.626,242.532 445.662,242.514 445.716,242.496 C445.824,242.478 445.95,242.442 446.094,242.388 C446.22,242.352 446.346,242.298 446.436,242.226 C446.49,242.172 446.562,242.118 446.652,242.082 C446.724,242.064 446.796,242.028 446.868,241.992 C446.994,241.938 447.12,241.884 447.246,241.848 C447.354,241.83 447.48,241.776 447.606,241.722 C447.732,241.668 447.876,241.578 448.074,241.47 C448.254,241.362 448.398,241.29 448.506,241.254 C448.524,241.236 448.56,241.236 448.596,241.218 C448.632,241.218 448.668,241.218 448.686,241.2 C448.776,241.164 448.884,241.11 448.974,241.038 C449.064,240.966 449.154,240.894 449.244,240.84 C449.316,240.804 449.388,240.768 449.478,240.732 C449.55,240.714 449.622,240.678 449.712,240.66 C449.766,240.606 449.82,240.57 449.892,240.534 C449.946,240.516 450.018,240.48 450.072,240.444 C450.126,240.408 450.18,240.372 450.216,240.318 C450.252,240.264 450.306,240.228 450.36,240.192 C450.45,240.138 450.54,240.084 450.63,240.048 C450.72,240.03 450.792,239.976 450.864,239.922 C451.026,239.778 451.206,239.634 451.368,239.472 C451.53,239.328 451.692,239.184 451.854,239.04 C451.944,238.95 452.052,238.86 452.16,238.806 C452.268,238.752 452.376,238.662 452.466,238.572 C452.592,238.446 452.718,238.284 452.808,238.104 C452.898,237.942 452.97,237.816 453.06,237.726 C453.114,237.672 453.168,237.618 453.222,237.564 C453.276,237.51 453.33,237.438 453.348,237.384 C453.366,237.33 453.402,237.24 453.456,237.132 C453.492,237.042 453.528,236.97 453.564,236.934 C453.582,236.88 453.618,236.826 453.672,236.79 C453.708,236.772 453.744,236.718 453.762,236.664 C453.78,236.646 453.816,236.592 453.852,236.502 C453.888,236.43 453.924,236.34 453.978,236.25 L454.086,235.98 C454.104,235.89 454.14,235.836 454.158,235.8 C454.194,235.71 454.212,235.638 454.23,235.548 C454.23,235.476 454.248,235.404 454.284,235.314 C454.302,235.242 454.338,235.17 454.392,235.098 C454.428,235.026 454.464,234.954 454.482,234.882 C454.536,234.72 454.59,234.54 454.644,234.378 C454.68,234.216 454.716,234.054 454.752,233.892 C454.752,233.856 454.77,233.802 454.788,233.712 C454.806,233.622 454.824,233.532 454.86,233.442 C454.878,233.352 454.914,233.28 454.95,233.208 C454.986,233.154 455.022,233.118 455.058,233.118 C455.13,233.118 455.22,233.154 455.31,233.226 C455.4,233.316 455.472,233.352 455.526,233.352 C455.58,233.352 455.652,233.316 455.742,233.244 C455.832,233.172 455.904,233.082 455.976,232.974 C456.048,232.884 456.12,232.776 456.174,232.686 C456.228,232.596 456.246,232.524 456.246,232.47 C456.246,232.398 456.174,232.344 456.048,232.29 C455.904,232.254 455.796,232.218 455.742,232.2 C455.616,232.146 455.49,232.056 455.382,231.966 C455.274,231.876 455.148,231.804 455.004,231.786 C454.878,231.768 454.734,231.75 454.608,231.732 C454.482,231.732 454.338,231.714 454.212,231.696 C454.086,231.678 453.96,231.642 453.834,231.606 C453.708,231.588 453.582,231.57 453.456,231.57 C453.294,231.57 453.114,231.57 452.952,231.588 C452.772,231.606 452.592,231.624 452.43,231.624 C452.34,231.624 452.286,231.606 452.25,231.588 L452.178,231.588 L451.998,231.588 C451.926,231.606 451.854,231.606 451.8,231.606 C451.602,231.606 451.476,231.588 451.386,231.534 C451.296,231.498 451.188,231.48 451.062,231.48 C450.9,231.48 450.72,231.498 450.558,231.516 C450.378,231.552 450.198,231.57 450.018,231.57 C449.892,231.57 449.784,231.57 449.676,231.552 L449.334,231.552 C449.262,231.552 449.19,231.552 449.136,231.57 C449.064,231.588 448.992,231.588 448.92,231.588 L448.92,231.588 Z M456.894,228.294 C456.948,228.294 457.02,228.312 457.11,228.348 C457.2,228.384 457.254,228.42 457.308,228.438 C457.344,228.456 457.398,228.492 457.452,228.51 C457.506,228.546 457.542,228.582 457.56,228.618 C457.614,228.672 457.668,228.798 457.722,228.96 C457.758,229.14 457.776,229.266 457.776,229.356 C457.776,229.59 457.74,229.788 457.686,229.932 C457.632,230.094 457.488,230.22 457.254,230.328 C457.056,230.418 456.876,230.454 456.714,230.454 C456.516,230.454 456.39,230.418 456.3,230.346 C456.21,230.292 456.138,230.22 456.084,230.13 C456.03,230.04 455.994,229.968 455.976,229.878 C455.94,229.788 455.886,229.734 455.814,229.68 C455.796,229.662 455.778,229.644 455.76,229.608 C455.724,229.572 455.706,229.554 455.706,229.536 L455.706,229.5 C455.706,229.446 455.706,229.392 455.724,229.338 C455.742,229.284 455.742,229.248 455.76,229.194 C455.832,228.924 455.94,228.708 456.066,228.546 C456.192,228.384 456.426,228.312 456.732,228.312 C456.768,228.294 456.822,228.294 456.894,228.294 L456.894,228.294 Z M456.732,231.336 C456.822,231.336 456.894,231.318 456.966,231.3 C457.038,231.282 457.11,231.246 457.182,231.228 L457.398,231.174 C457.47,231.174 457.542,231.156 457.614,231.138 C457.866,231.066 458.082,230.886 458.28,230.616 C458.478,230.346 458.622,230.094 458.712,229.86 L458.766,229.698 L458.766,229.626 C458.73,229.59 458.694,229.536 458.676,229.446 C458.658,229.374 458.622,229.284 458.604,229.194 C458.586,229.104 458.568,228.996 458.55,228.906 C458.532,228.816 458.532,228.762 458.532,228.708 L458.532,228.618 C458.532,228.582 458.532,228.564 458.55,228.546 C458.55,228.528 458.514,228.456 458.424,228.366 C458.334,228.276 458.28,228.222 458.262,228.204 C458.208,228.15 458.154,228.078 458.1,228.024 C458.046,227.97 457.992,227.898 457.938,227.844 C457.794,227.7 457.578,227.592 457.308,227.52 C457.02,227.448 456.768,227.412 456.57,227.412 C456.516,227.412 456.426,227.43 456.336,227.448 C456.246,227.484 456.156,227.52 456.102,227.538 C455.832,227.646 455.598,227.772 455.4,227.934 C455.184,228.096 455.022,228.312 454.932,228.582 C454.878,228.708 454.842,228.798 454.824,228.888 C454.806,228.978 454.788,229.086 454.788,229.212 C454.788,229.482 454.842,229.752 454.932,230.004 C455.022,230.256 455.148,230.472 455.328,230.67 C455.49,230.868 455.706,231.03 455.94,231.156 C456.174,231.282 456.444,231.336 456.732,231.336 L456.732,231.336 Z" id="トップ" sketch:type="MSShapeGroup"></path>
        </g>
    </g>
</svg>